<?xml version="1.0" encoding="utf-8"?>
<!-- Generator: Adobe Illustrator 23.0.1, SVG Export Plug-In . SVG Version: 6.00 Build 0)  -->
<svg version="1.1"
	 id="Layer_1" inkscape:version="0.48.5 r10040" sodipodi:docname="A.svg" xmlns:cc="http://creativecommons.org/ns#" xmlns:dc="http://purl.org/dc/elements/1.1/" xmlns:inkscape="http://www.inkscape.org/namespaces/inkscape" xmlns:rdf="http://www.w3.org/1999/02/22-rdf-syntax-ns#" xmlns:sodipodi="http://sodipodi.sourceforge.net/DTD/sodipodi-0.dtd" xmlns:svg="http://www.w3.org/2000/svg"
	 xmlns="http://www.w3.org/2000/svg" xmlns:xlink="http://www.w3.org/1999/xlink" x="0px" y="0px" viewBox="0 0 2154.2 250"
	 enable-background="new 0 0 2154.2 250" xml:space="preserve">
<g>
	<polygon fill="#141B4D" points="214.1,245.6 133.2,192.4 8.1,245.4 81.8,159 0,105.3 127.5,105.3 214.1,3.8 214.1,105.3 
		337.7,105.3 214.1,158 	"/>
	<path fill="#141B4D" d="M367.7,53.4c4.3,0,7.9-3.5,7.9-7.8l0-34c0-4.3-3.5-7.9-7.9-7.9H235.1v49.7L367.7,53.4z"/>
	<path fill="#141B4D" d="M367.7,246.1c4.3,0,7.9-3.5,7.9-7.8l0-34c0-4.3-3.5-7.9-7.9-7.9H235.1v49.7L367.7,246.1z"/>
	<path fill="#141B4D" d="M2146.3,3.6h-165.6c-4.3,0-7.9,3.5-7.9,7.9v34c0,4.3,3.5,7.9,7.9,7.9h57.9v185.1c0,4.3,3.5,7.9,7.9,7.9h34
		c4.3,0,7.9-3.5,7.9-7.9V53.4h57.9c4.3,0,7.9-3.5,7.9-7.9v-34C2154.2,7.1,2150.7,3.6,2146.3,3.6"/>
	<path fill="#141B4D" d="M1486.3,58c-3.9-10.7-9.8-20.2-17.4-28.2c-7.6-8-17-14.4-27.8-19.1c-10.9-4.7-23.3-7.1-36.8-7.1h-90.1
		c-4.3,0-7.9,3.5-7.9,7.9v226.8c0,4.3,3.5,7.9,7.9,7.9h34c4.3,0,7.9-3.5,7.9-7.9l0-58.1h48.2c13.5,0,25.9-2.3,36.6-7
		c10.8-4.6,20.1-11,27.7-19c7.6-8,13.5-17.3,17.5-27.7c4-10.4,6-23.5,6-35C1492.1,79.8,1490.2,68.5,1486.3,58 M1439.4,107.4
		c-1.8,4.7-4.3,8.9-7.5,12.3c-3.1,3.4-6.7,5.6-11,7.5c-4.2,1.9-11.8,3-26.5,3h-38.2V53.4h50.2c5.4,0,10.3,1,14.6,2.9
		c4.4,1.9,8.2,4.6,11.4,7.9c3.1,3.3,5.5,7.3,7.2,12c1.7,4.9,2.6,10.1,2.6,15.6C1442.1,97.3,1441.2,102.5,1439.4,107.4"/>
	<path fill="#141B4D" d="M1147.7,73.2c-0.2,5,1.1,8.1,3,10.8c2.1,3.1,5.2,5.6,9,7.6c4.3,2.2,9.3,4,15,5.2c6.2,1.4,12.6,2.6,18.9,3.7
		c11.5,1.8,22.8,4.1,33.7,6.8c11.4,2.8,21.4,7,30,12.6c8.9,5.7,15.9,13.4,21,22.7c5.1,9.4,7.4,21.4,6.8,35.6
		c-0.6,13.8-4.1,25.6-10.5,35.1c-6.3,9.3-14.3,16.8-24,22.5c-9.5,5.5-18.8,9.6-30.4,11.8c-11.4,2.1-24.1,2.8-35.2,2.3
		c-27.6-1.2-68.3-17-88.7-45c-1.6-2.2-3.6-6.1,0.8-10.5c4.4-4.5,25.4-25.8,25.4-25.8c4.2-4.5,8.3-1.3,10.1,1.3
		c11.9,17.5,35.7,30.5,54.4,31.3c9.8,0.4,11,0,17.1-0.8c5.6-0.7,10.5-2.2,15.1-4.3c4.2-1.9,7.8-4.5,10.6-8.1c2.6-3.3,4.1-8,4.5-13.5
		c0.4-5.2-1.1-9.4-3.5-12.8c-2.6-3.7-6.3-6.5-10.6-8.8c-4.9-2.6-10.5-4.2-16.7-5.3c-6.7-1.2-13.3-2.3-19.7-3.3
		c-10.6-1.4-21.2-3.5-31.4-6.4c-10.5-3-20-7.3-28-12.6c-8.4-5.6-15.1-12.8-20.1-21.5c-5.1-8.9-7.4-19-6.8-31.7
		c0.6-12.8,3.8-24.1,9.5-33.5c5.7-9.3,13.1-17,22.1-22.8c8.8-5.7,18.9-9.9,30.1-12.4c21.8-4.9,43.5-4.1,65.1,2.7
		c23.3,7.4,41.9,25.2,50.5,37.9c1.6,2.3,3.2,6-0.2,9.8c-3.4,3.8-23.9,23.9-23.9,23.9c-4.4,4.2-9,3.2-11.5-0.4
		c-12.6-18.5-28.8-26.8-47.6-28.1C1171.3,47.5,1148.6,52.1,1147.7,73.2"/>
	<path fill="#141B4D" d="M1043.7,32.9c-11.2-10.7-24.4-18.9-39.3-24.5c-14.7-5.5-30.6-8.3-47-8.3c-16.2,0-31.9,2.8-46.8,8.3
		c-15,5.6-28.3,13.8-39.6,24.5c-11.3,10.7-20.4,24-27.1,39.4c-6.7,15.5-10,33.2-10,52.7c0,19.7,3.3,37.5,9.9,52.8
		c6.5,15.4,15.6,28.6,26.8,39.3c11.2,10.7,24.4,18.9,39.3,24.5c14.7,5.5,30.6,8.3,47,8.3c18,0,34.8-3,49.9-9
		c15.2-6,28.4-14.7,39.3-25.8c10.8-11,19.4-24.3,25.5-39.6c6.1-15.2,9.1-32.2,9.1-50.5c0-19.5-3.4-37.2-10-52.7
		C1064,56.9,1054.9,43.6,1043.7,32.9 M1023.8,158.6c-3.8,9.4-9.1,17.3-15.6,23.5c-6.6,6.3-14.3,11.1-22.9,14.3
		c-8.8,3.2-18.3,4.9-28.3,4.9c-10.2,0-19.8-1.6-28.6-4.9c-8.6-3.2-16.2-7.9-22.5-14.2c-6.4-6.3-11.5-14.2-15.4-23.6
		c-3.9-9.5-5.8-20.7-5.8-33.3c0-12.6,2-23.8,5.8-33.3c3.8-9.4,9-17.3,15.5-23.6c6.4-6.3,14.1-11.1,22.8-14.4c8.8-3.3,18.4-5,28.5-5
		c9.9,0,19.4,1.7,28.2,5c8.6,3.3,16.3,8.2,22.7,14.5c6.5,6.4,11.7,14.4,15.5,23.8c3.9,9.5,5.8,20.6,5.8,32.9
		C1029.7,137.9,1027.7,149.1,1023.8,158.6"/>
	<path fill="#141B4D" d="M1719,32.9c-11.2-10.7-24.4-18.9-39.3-24.5c-14.7-5.5-30.6-8.3-47-8.3c-16.2,0-31.9,2.8-46.8,8.3
		c-15,5.6-28.3,13.8-39.6,24.5c-11.3,10.7-20.4,24-27.1,39.4c-6.7,15.5-10,33.2-10,52.7c0,19.7,3.3,37.5,9.9,52.8
		c6.5,15.4,15.6,28.6,26.8,39.3c11.2,10.7,24.4,18.9,39.3,24.5c14.7,5.5,30.6,8.3,47,8.3c18,0,34.8-3,49.9-9
		c15.2-6,28.4-14.7,39.3-25.8c10.8-11,19.4-24.3,25.5-39.6c6.1-15.2,9.1-32.2,9.1-50.5c0-19.5-3.4-37.2-10-52.7
		C1739.2,56.9,1730.2,43.6,1719,32.9 M1699.1,158.6c-3.8,9.4-9.1,17.3-15.6,23.5c-6.6,6.3-14.3,11.1-22.9,14.3
		c-8.8,3.2-18.3,4.9-28.3,4.9c-10.2,0-19.8-1.6-28.6-4.9c-8.6-3.2-16.2-7.9-22.5-14.2c-6.4-6.3-11.5-14.2-15.4-23.6
		c-3.9-9.5-5.8-20.7-5.8-33.3c0-12.6,2-23.8,5.8-33.3c3.8-9.4,9-17.3,15.5-23.6c6.4-6.3,14.1-11.1,22.8-14.4c8.8-3.3,18.4-5,28.5-5
		c9.9,0,19.4,1.7,28.2,5c8.6,3.3,16.3,8.2,22.7,14.5c6.5,6.4,11.7,14.4,15.5,23.8c3.9,9.5,5.8,20.6,5.8,32.9
		C1704.9,137.9,1703,149.1,1699.1,158.6"/>
	<path fill="#141B4D" d="M585.7,3.6h-34.2c-4.3,0-7.9,3.5-7.9,7.9v150.1c0,6.4-1.1,12-3.2,16.7c-2.1,4.6-5,8.6-8.6,11.7
		c-3.7,3.2-8.3,5.7-13.4,7.4c-5.3,1.8-14.3,2.7-20.5,2.7c-6.3,0-15.8-0.9-21.2-2.7c-5.3-1.7-9.9-4.2-13.8-7.5
		c-3.7-3.1-6.7-7-8.7-11.6c-2.1-4.7-3.2-10.3-3.2-16.7V11.5c0-4.3-3.5-7.9-7.9-7.9h-34c-4.3,0-7.9,3.5-7.9,7.9v151.3
		c0,13.9,2.6,26.4,7.7,37.1c5.1,10.7,12.2,19.9,21.2,27.4c8.8,7.4,19.2,13.1,30.8,16.8c11.4,3.7,23.9,5.6,36.9,5.6
		c12.8,0,25.2-1.9,36.6-5.6c11.6-3.8,21.9-9.5,30.6-16.9c8.7-7.5,15.7-16.7,20.8-27.3c5.1-10.7,7.7-23.2,7.7-37.1V11.5
		C593.6,7.1,590.1,3.6,585.7,3.6"/>
	<path fill="#141B4D" d="M825,232.9l-55.3-68.6c0,0,44.6-16.2,44.6-72.9c0-11.7-2-22.9-5.8-33.5c-3.9-10.7-9.8-20.2-17.4-28.2
		c-7.6-8-17-14.4-27.8-19.1C752.4,6,740,3.6,726.5,3.6h-90c-4.3,0-7.9,3.5-7.9,7.9v226.8c0,4.4,3.5,7.9,7.9,7.9h33.9
		c4.3,0,7.9-3.5,7.9-7.9V53.4h50.4c5.4,0,10.3,1,14.6,2.9c4.4,1.9,8.2,4.6,11.4,7.9c3.1,3.3,5.5,7.3,7.2,12
		c1.7,4.8,2.6,10.1,2.6,15.6c0,5.5-0.9,10.7-2.7,15.5c-1.8,4.7-4.3,8.9-7.5,12.3c-3.1,3.4-6.7,5.6-11,7.5
		c-4.2,1.9-11.8,3.1-26.5,3.1h-21.1c-4.2,0-7.4,3.8-4.2,8.9l78.8,103.7c1.5,2.1,3.9,3.3,6.4,3.3h43.5
		C826.7,246.1,830.9,240.2,825,232.9"/>
	<path fill="#141B4D" d="M1975.8,232.9l-55.3-68.6c0,0,44.6-16.2,44.6-72.9c0-11.7-2-22.9-5.8-33.5c-3.9-10.7-9.8-20.2-17.4-28.2
		c-7.6-8-17-14.4-27.8-19.1c-10.9-4.7-23.3-7.1-36.8-7.1h-90c-4.3,0-7.9,3.5-7.9,7.9v226.8c0,4.4,3.5,7.9,7.9,7.9h33.9
		c4.3,0,7.9-3.5,7.9-7.9V53.4h50.4c5.4,0,10.3,1,14.6,2.9c4.4,1.9,8.2,4.6,11.4,7.9c3.1,3.3,5.5,7.3,7.2,12
		c1.7,4.8,2.6,10.1,2.6,15.6c0,5.5-0.9,10.7-2.7,15.5c-1.8,4.7-4.3,8.9-7.5,12.3c-3.1,3.4-6.7,5.6-11,7.5
		c-4.2,1.9-11.8,3.1-26.5,3.1h-21.1c-4.2,0-7.4,3.8-4.2,8.9l78.8,103.7c1.5,2.1,3.9,3.3,6.4,3.3h43.5
		C1977.4,246.1,1981.7,240.2,1975.8,232.9"/>
</g>
</svg>
