<?xml version="1.0" encoding="UTF-8"?>
<!-- Created with Inkscape (http://www.inkscape.org/) -->
<svg width="277.59" height="340.83" version="1.1" viewBox="0 0 73.447 90.179" xmlns="http://www.w3.org/2000/svg" xmlns:cc="http://creativecommons.org/ns#" xmlns:dc="http://purl.org/dc/elements/1.1/" xmlns:rdf="http://www.w3.org/1999/02/22-rdf-syntax-ns#">
 <defs>
  <clipPath id="fxrba">
   <path d="m0 181.02v-181.02h147.43v181.02z"/>
  </clipPath>
 </defs>
 <metadata>
  <rdf:RDF>
   <cc:Work rdf:about="">
    <dc:format>image/svg+xml</dc:format>
    <dc:type rdf:resource="http://purl.org/dc/dcmitype/StillImage"/>
    <dc:title/>
   </cc:Work>
  </rdf:RDF>
 </metadata>
 <g transform="translate(-60.038 -87.869)">
  <g transform="matrix(.49818 0 0 .49818 60.038 87.868)">
   <g clip-path="url(#fxrba)">
    <path d="m144.1 16.544a281.19 281.19 0 0 0-5.495-0.95c-0.398-3.515-0.89-7.013-1.477-10.483-37.247-6.615-90.067-7.01-126.82 0a193.55 193.55 0 0 0-1.468 10.42 233.53 233.53 0 0 0-5.504 1.013c-9.267 57.109-3.193 118.23 70.381 164.47 73.576-46.243 79.65-107.36 70.382-164.47" fill="#fff"/>
   </g>
   <g clip-path="url(#fxrba)">
    <path d="m136.95 23.486c-37.133-6.842-89.793-7.25-126.43 0-8.396 51.614 1.482 108.91 63.217 147.74 61.736-38.83 71.613-96.13 63.217-147.74" fill="#e92b1e"/>
   </g>
   <g clip-path="url(#fxrba)">
    <path d="m73.737 174.72-1.575-0.991c-29.042-18.267-48.933-42.016-59.118-70.588-8.42-23.616-10.25-50.578-5.442-80.134l0.33-2.028 2.015-0.399c36.223-7.166 88.67-7.169 127.54-8e-3l2.048 0.378 0.335 2.057c4.809 29.556 2.977 56.518-5.443 80.136-10.184 28.57-30.075 52.319-59.12 70.586zm-60.617-148.73c-4.239 27.76-2.39 53.034 5.497 75.161 9.544 26.775 28.084 49.16 55.121 66.566 27.038-17.405 45.578-39.791 55.123-66.566 7.885-22.118 9.733-47.388 5.5-75.134-36.728-6.43-86.9-6.44-121.24-0.027" fill="#96172e"/>
   </g>
   <g clip-path="url(#fxrba)">
    <path d="m133.55 15.493a165.47 165.47 0 0 0-1.022-6.518c-34.54-5.842-83.525-6.19-117.61 0-0.38 2.144-0.719 4.3-1.014 6.463 35.469-6.16 83.767-5.82 119.64 0.055" fill="#00267a"/>
   </g>
   <g clip-path="url(#fxrba)">
    <path d="m122.4 53.8c-1.169-2.922-2.126-8.712 3.742-8.522-0.91-3.646-5.888-3.776-7.142-0.67-3.401-4.568-9.617-7.884-12.78-7.127 0.068 2.161 1.184 4.473 4.155 6.475-3.23 0.254-5.124 2.166-4.299 5.567 7.252-4.117 14.73 4.331 13.348 12.513-0.627 3.716-0.58 7.785-2.409 11.206 0.111-5.21-6.944-5.882-7.153-1.005 2.11-1.7 4.771 0.056 3.4 3.611-1.25 1.89-1.335 5.27-2.657 7.092-2.455-3.356-5.847-8.845-7.438-12.51-2.616-6.03 3.626-7.12 4.888-4.038 1.846-4.489-2.928-7.365-5.737-6.27 2.828-3.586 7.982-2.656 9.35 0.532 2.218-6.322-4.515-8.226-8.912-5.26 3.453-6.668 0.444-8.195 0.444-8.195-2.552 1.667-5.894 9.572-5.894 15.288 0 5.57 2.352 10.747 5.304 15.55-3.035-2.196-7.107-2.14-9.713-0.304 0 0 0.96 3.216 7.933 3.216-1.677 1.473-1.59 4.56 1.488 6.482-0.413-4.09 3.24-6.096 5.657-3.838 0.127 0.18 0.104 2.533 0.229 2.713-3.027 4.372-6.033 8.045-6.033 12.335 0 3.682 1.352 7.5 3.484 9.97-0.074 3e-3 0.402 0.105 0.328 0.105-4.736 0-8.515-4.416-9.432-9.881-7.055-5-11.884-11.363-9.234-22.04 2.686-1.111 4.073-4.115 3.222-6.903 2.426-1.763 3.151-5.103 1.671-7.737a6.021 6.021 0 0 0-0.033-7.955c1.364-2.578 0.62-5.836-1.818-7.525-0.038-0.026-0.078-0.047-0.116-0.071a5.54 5.54 0 0 0-1.412-5.134c0.876-1.942 1.121-3.98 1.121-3.98s-2.026-0.709-3.843-0.927l3.307-5.543c0.035 0.011-6.515-1.751-4.193 3.07-0.143-0.037-13.045 0.772-13.045 0.772-3.931 0.392-11.643 6.27-11.643 6.27 0.438 3.94 1.414 6.563 2.042 8.024-1.41 0.388-2.771 0.63-4.181 0.777-2.818 0.292-4.502-2.093-4.717-3.5-2.624 2.43-1.342 11.352 9.625 7.42 0.85 1.723 0.627 3.9 0.627 3.9s0.181 0.077 0.305 0.108c6.2-4.187 8.47-0.764 7.676 0.97-4.634 1.329-7.385 4.354-9.852 6.321-9.327-4.359-15.06-8.763-18.304-12.07-2.497-4.302 3.145-10.248 3.145-10.248a2.333 2.333 0 0 0-0.46-0.426c0.358-3.23-2.684-4.336-4.734-3.44v0.05c0.599 0.1 1.829 0.634 1.73 2.233-2.174-0.113-4.257 1.256-4.212 4.64-0.625-1.757-3.94-4.131-4.633-5.957a3.253 3.253 0 0 0-0.889-0.066c-0.759-1.926-4.212-1.793-5.036 0.492l0.032 0.037c0.55-0.323 1.881-0.17 1.908 0.972-0.956 2.895 0.649 5.477 4.357 7.332-1.56-0.482-3.385-0.172-4.501-0.318-0.388 0.354-0.547 0.988-0.786 1.406-2.975 0-4.356 2.418-3.241 4.676l0.05 1e-3c0.177-0.719 0.72-1.516 1.81-1.303 1.143 1.54 3.081 2.418 7.145 1.86-1.07 0.914-1.285 3.525-1.248 4.383 0.066 1.519-0.558 2.948-2.55 2.524l-0.04 0.03c0.963 3.021 5.007 3.476 6.735 1.112l1.22-0.345s0.266-2.046 0.532-3.48c1.026 1.671 3.322 6.085 3.958 6.933-1.245 0.244-2.1 0.793-2.487 1.035-0.052 1.175 1.002 2.924 3.656 3.214-1.755 1.363-0.937 4.057-0.183 5.138 1.393-0.313 3.307-1.862 5.284-2.8 0.895 1.017 2.646 3.275 3.442 4.081-3.27 2.453-6.795 4.919-9.39 6.269-2.626 1.06-3.751-3.976-4.26-6.797 0 0-5.864 0.645-3.41 6.034l-0.136 0.174c-2.415-1.6-5.555-4.837-5.555-4.837-5.17-0.368-6.23 3.036-5.45 4.773l0.05 0.01c0.222-0.549 1.026-1.205 1.784-1.246 0.04 2.152 1.726 3.96 6.375 3.985l0.64 1.189c-1.713 0.198-4.138 0.587-5.281 0.96-0.2 0.401-0.268 0.179-0.351 0.582-0.062 0.03-0.124 0.06-0.188 0.097-2.986 1.728-3.123 6.37-0.464 7.656l0.042-0.028c-0.29-0.73 0.118-3.03 1.28-3.755 1.294 1.349 4.8 1.905 8.147-1.8l0.98-5e-3 -1.02 6.14c0.638 1.395-1.047 2.647-1.674 2.518l-0.019 0.045c1.535 1.98 5.028 1.405 6.24-0.732 1.42-0.612 1.989-1.989 1.989-1.989s0.438-1.328 0.384-6.057c0 0 4.091-0.584 6.216-0.451-0.212 0.957-0.106 1.86-0.106 1.86 1.395 0.69 3.4 0.53 5.02-0.878 0 0 0.532 1.276 1.196 2.364 1.887-0.291 4.701-2.257 5.209-4.686 3.198 3.327 7.531 5.762 10.99 7.995-7.532-0.514-20.58 2.302-20.58 2.302s0.916 2.698 4.416 1.829c-0.288 4.222 4.043 12.289 5.264 14.582-8.287-0.849-9.456-9.032-9.456-9.032-4.968-1.115-10.307 2.604-3.833 8.605-2.894-1.345-4.63-2.806-5.308-3.174-0.296 0.139-0.567 0.304-0.814 0.485-3.017-0.951-5.492 1.31-4.895 4.219l0.049 0.01c0.198-0.525 1.186-1.007 2.05-0.793 0.77 1.992 2.484 3.302 7 3.236l0.406 0.711c-2.004 0.8-3.714 1.727-4.85 2.736-0.101 0.589 0.332 1.192 0.42 1.697-2.03 2.187-0.984 5.58 1.322 6.348l0.037-0.032c-0.31-0.764-0.377-2.37 1.217-2.902 2.975 0.159 5.352-2.125 6.636-4.345-0.738 2.884-0.473 6.496 2.489 7.758 0.613 0.632-0.135 2.083-0.637 2.484 2.163 0.771 4.68-1.342 4.672-3.761 0.705-0.557 1.118-1.127 1.118-1.127-1.422-2.44-2.555-5.014-2.643-6.043-0.08-1.196 2.07-2.206 5.778-2.869 2.904 2.917 6.772 2.424 7.462 2.157 0.175-1.055-0.732-2.932-2.255-3.557 1.771-1.01 2.482-3.453 2.085-4.338-0.59 0.02-2.152 0.438-2.949 0.877-0.477-6.415 0.115-6.462 8.666-4.465-2.214 5.105-3.618 6.98-3.193 9.525-0.087 4.557 0.106 7.153 0.106 7.153 1.853 0.597 3.56-0.619 3.771-1.84 2.445 1.7 6.01 3.64 11.492 5.135-0.58 0.73-4.83 6.148-9.692 5.63-2.27-0.518-4.494-4.413-4.494-4.413a4.106 4.106 0 0 0-0.905 0.013c-2.655-1.321-5.227 0.422-5.303 2.476l0.043 0.024c0.288-0.347 0.158 1.146 1.21 1.389-0.636 1.249 0.638 0.977 2.43 2.292-1.633-0.162-3.216-0.405-4.78-0.521-0.371 0.215-0.894 0.683-1.157 0.991-3.901-0.111-5.227 3.515-3.922 5.737l0.058 1e-3c0.153-0.77 1.048-1.965 2.376-2.071 1.54 1.912 5.126 3.93 11.485 0.174l0.387 0.22c-1.59 1.458-3.146 3.232-3.942 4.935 0.068 0.612 0.217 1.165 0.432 1.65-1.365 2.97 1.09 5.878 3.934 5.472l0.021-0.043c-0.296-0.23-0.601-0.94-0.495-1.53 0.357-2.006 3.81-1.209 5.502-7.29 0.181-0.657 0.531-1.024 0.953 0.343 0.425 1.382 1.397 1.796 2.304 2.103 1.721 0.585 0.954 1.76-0.114 2.284l0.013 0.049c2.536 1.083 4.767-1.65 4.558-3.933 0.646-0.766 0.829-2.33 0.829-2.33-2.244-2.297-2.165-4.09-2.165-4.09s1.927-4.487 6.124-8.55c4.92 0.707 9.146-1.458 9.861-3.544-1.02-1.316-3.08-2.17-5.26-1.86 3.4-2.868 2.408-6.937 0.904-7.755-2.562 0.283-5.801 4.11-6.29 7.34l-7.42-6.543c3.85-2.322 7.573-5.752 9.764-10.135 9.803 6.774 22.129 1.474 22.129-12.34 0-2.709-1.616-6.167-4.447-10.374 4.74-6.79 10.729-16.416 10.729-25.102 0-2.152-0.536-4.795-1.301-6.707m-8.9 45.039c0 3.328-0.656 6.61-2.878 8.304-2.226-1.693-3.537-5.44-3.537-8.662 0-2.769 1.08-6.011 3.387-9.245 2.391 3.148 3.028 6.478 3.028 9.603" fill="#96172e"/>
   </g>
   <g clip-path="url(#fxrba)">
    <path d="m62.469 48.627c0.103-0.335 0.528-1.663 1.145-2.907 2.506-0.599 5.736-1.61 5.736-1.61 1.438 0.81 2.675 3.129 2.482 4.081-1.618-0.139-5.159-0.021-9.363 0.436zm7.085-9.686c-0.932-0.893-1.853-1.082-1.853-1.082 0.291-0.57 0.777-0.958 0.777-0.958s1.635-0.352 5.264 0.695zm52.109 11.53c-1.37-3.227-1.826-8.938 3.524-8.838-1.35-2.95-6.588-2.594-7.895 0.318-2.343-4.69-6.139-7.31-9.39-7.282-0.096 1.555 0.568 4.462 2.596 7.242-3.543 0.025-6.368 2.373-5.542 5.775 7.804-4.658 14.184 3.419 14.184 11.156 0 3.769-1.25 7.334-3.079 10.755 0.11-5.211-6.982-5.227-7.192-0.352 2.809-1.263 6.07 0.931 4.7 4.487-1.249 1.89-2.596 3.74-3.918 5.563-2.455-3.357-5.017-6.781-6.922-10.292-3.007-5.995 1.695-8.06 4.576-5.633 1.092-4.265-2.654-6.139-5.465-5.043 2.951-3.497 8.437-3.926 10.994-1.427 0.287-5.5-6.293-7.753-10.69-4.788 1.965-3.575-0.218-5.516-0.218-5.516-2.554 1.666-5.575 6.529-5.575 12.246 0 5.57 2.354 10.746 5.305 15.55-3.036-2.198-7.107-2.14-9.714-0.304 0 0 1.024 3.295 7.648 3.616-1.677 1.474-1.785 4.6 1.29 6.521 0.324-2.954 3.634-4.661 5.995-2.103l0.375 0.539c-3.028 4.37-5.443 8.62-5.443 12.91 0 3.681 1.313 7.021 3.444 9.494-0.074 1e-3 -0.148 5e-3 -0.223 5e-3 -4.735 0-8.515-4.417-9.43-9.882-7.056-5-11.808-11.826-9.239-22.045a5.412 5.412 0 0 0 3.127-6.608 5.665 5.665 0 0 0 1.62-7.405 5.706 5.706 0 0 0-0.031-7.613 5.554 5.554 0 0 0-1.764-7.203c-0.037-0.026-0.075-0.045-0.112-0.07a5.258 5.258 0 0 0-1.37-4.914c0.514-1.613 0.667-3.17 0.667-3.17s-1.39-0.683-3.143-1.028l2.847-6.485s-2.917-0.786-3.221 1.645a2.542 2.542 0 0 0-0.45-0.074c-1.119-0.078-2.078 0.587-2.139 1.486-0.03 0.422 0.146 0.819 0.455 1.13 0.408-0.053 0.896 0.06 1.085 0.343-0.364 0.469-1.927 0.826-3.317 0.538-0.85-0.168-1.562-0.61-1.959-1.053 0.3-0.263 0.907-0.202 1.279 7e-3 0.738-0.216 1.285-0.79 1.333-1.5 0.066-0.953-0.788-1.788-1.908-1.866a2.392 2.392 0 0 0-0.608 0.036c0.985-2.556-1.513-3.38-1.513-3.38s-2.59 0.473-1.965 3.14a2.341 2.341 0 0 0-0.597-0.119c-1.12-0.078-2.08 0.632-2.147 1.585-0.049 0.71 0.414 1.354 1.115 1.668 0.397-0.154 1.007-0.131 1.267 0.171-0.455 0.382-1.22 0.723-2.085 0.772-1.416 0.094-2.915-0.474-3.213-0.989 0.227-0.254 0.725-0.299 1.124-0.19 0.348-0.266 0.577-0.635 0.606-1.058 0.062-0.898-0.795-1.688-1.915-1.765a2.457 2.457 0 0 0-0.456 0.01c0.034-2.448-2.963-2.071-2.963-2.071l2.239 7.916c-0.805 0.46-1.919 1.16-2.78 1.946l-7.079 3.643c4e-3 0.293 0.228 1.494 1.022 1.645-0.188 1.467 0.087 3.212 1.397 3.844 0.418 1.189 1.092 2.215 1.446 2.544-1.43 0.158-2.931 0.356-4.459 0.597-2.797 0.441-5.182-0.433-6.152-2.71-1.228 2.57 0.097 10.287 10.536 5.052 0.85 1.723 0.625 3.899 0.625 3.899s0.183 0.078 0.307 0.107c6.2-4.185 9.506-1.064 8.714 0.67-4.635 1.33-8.252 3.273-10.718 5.24-9.328-4.358-14.662-8-17.906-11.306-2.097-3.22 0.962-6.81 2.746-11.011a2.263 2.263 0 0 0-0.46-0.427c0.36-3.229-2.684-4.335-4.734-3.438v0.05c0.599 0.1 1.829 0.632 1.73 2.232-2.173-0.115-4.258 1.256-4.212 4.639-0.626-1.758-1.096-3.51-1.788-5.336a3.295 3.295 0 0 0-0.887-0.067c-2.095-2.463-5.557-1.167-5.988 0.67l0.032 0.04c0.55-0.325 2.243-0.44 3.085 0.796-1.464 1.72-1.546 5.224 1.777 7.552-1.558-0.481-3.877-1.018-4.992-1.163-0.39 0.355-0.7 0.75-0.939 1.167-2.84 0.235-4.375 2.709-3.094 5.049l0.048 2e-3c0.178-0.72 1.415-1.902 2.66-1.898 0.616 1.919 2.32 3.368 6.969 3.11-1.07 0.916-2.026 2.03-2.378 2.811-0.507 1.123-0.625 2.45-0.014 3.47-0.894 0.14-1.86-0.102-2.252-0.453l-0.04 0.03c-0.057 2.882 3.622 4.048 6.33 1.978l1e-3 -3e-3c0.753-0.098 1.221-0.345 1.221-0.345 0.28-0.61 0.873-2.21 1.395-3.668 1.024 1.672 4.226 6.225 4.863 7.072-1.246 0.244-2.1 0.793-2.488 1.035 0.044 1.593 1.085 3.163 3.739 3.453-1.755 1.364-1.695 4.052-0.942 5.134 1.394-0.313 3.691-1.291 5.668-2.228a67.462 67.462 0 0 0 2.548 2.748c-3.27 2.452-6.794 4.92-9.39 6.268-3.292 1.331-3.335-6.951-3.655-8.408a3.43 3.43 0 0 0-0.791-0.128c-1.593-2.128-4.75-1.926-5.716 0.48l0.03 0.038c0.57-0.273 1.85-0.402 2.656 0.452-1.8 1.33-2.779 3.933-0.193 6.804l-0.136 0.175c-2.414-1.6-5.553-4.837-5.553-4.837-0.27 0.108-0.52 0.25-0.753 0.415-3.287-0.458-4.992 2.444-4.213 4.18l0.048 0.01c0.223-0.548 1.141-1.58 2.423-1.37-0.429 2.389 1.114 5.248 5.764 5.272l0.13 0.202c-1.715 0.198-4.14 0.588-5.282 0.962-0.2 0.4-0.338 0.807-0.423 1.21-0.061 0.03-0.122 0.062-0.186 0.1-2.986 1.726-3.054 5.737-0.394 7.023l0.041-0.026c-0.29-0.732 0.12-3.03 1.281-3.755 1.472 1.778 4.78 2.085 9.07-1.823l0.057 0.018c-1.307 3.13-1.941 5.32-1.941 5.32 0.136 1.043 0.675 2.04 1.567 2.675-0.663 0.83-1.906 1.238-2.533 1.109l-0.019 0.044c1.535 1.981 5.03 1.405 6.239-0.731 1.423-0.612 1.99-1.989 1.99-1.989s0.195-2.649 0.033-5.38c0 0 1.103-0.273 7.305-1.242-0.187 0.628-0.356 1.82-0.33 2.233 1.126 0.673 2.961 0.655 4.59-1.045 0.156 0.733 0.385 1.452 0.68 2.128 3.2-0.473 5.19-2.2 5.854-4.988 3.198 3.327 7.531 5.76 10.988 7.995-7.53-0.516-20.349 3.703-20.349 3.703s0.917 2.7 4.417 1.829c-0.722 3.553 2.59 11.052 3.81 13.346-8.859 2.008-8.684-8.604-8.684-8.604a4.379 4.379 0 0 0-1.862 0.087c-2.102-1.519-4.765-0.32-5.411 1.572l0.035 0.033c0.455-0.356 1.785-0.806 2.921 0.156-1.084 1.62-1.103 4.013 0.935 6.162-2.894-1.345-4.63-2.806-5.308-3.172a4.82 4.82 0 0 0-0.813 0.484c-3.186-0.464-5.22 2.225-4.44 4.254l0.049 0.01c0.198-0.525 1.466-1.3 2.663-1.235-0.127 2.176 1.767 4.358 6.283 4.291l0.054 0.063c-2.003 0.8-3.713 1.727-4.85 2.736-0.102 0.59-0.099 1.142-0.01 1.647-2.029 2.188-1.015 5.644 1.751 6.398l0.039-0.032c-0.391-0.705-0.704-2.876 0.392-3.639 3.336 1.324 6.083-1.599 7.46-3.608-0.325 1.84-0.275 3.544-0.048 4.455 0.422 1.684 1.58 2.949 2.916 3.1 0.07 1.074-1.043 2.01-1.702 2.258l6e-3 0.047c2.271 1.242 5.003-0.761 4.994-3.352a6.372 6.372 0 0 0 1.12-1.126c-1.424-2.438-1.806-4.278-1.893-5.307 0.584-1.525 2.307-2.424 6.016-3.086 2.904 2.917 6.14 1.877 6.831 1.611 0.174-1.055-0.262-2.212-1.785-2.836 1.771-1.01 2.483-3.454 2.084-4.339-0.59 0.02-2.15 0.169-3.483 1.016-0.951-6.787 0.179-7.322 8.73-5.325-2.212 5.106-3.334 8.521-2.908 11.067-0.087 4.557 0.15 7.44 0.15 7.44 2.55 0.907 3.828-1.441 3.145-3.11 2.548 1.575 6.309 3.081 11.79 4.575-0.58 0.73-4.831 6.15-9.692 5.631-2.27-0.518-4.496-4.412-4.496-4.412a3.944 3.944 0 0 0-0.903 0.013c-2.655-1.322-5.228 0.422-5.302 2.475l0.042 0.025c0.287-0.348 1.213-0.733 2.263-0.489-0.635 1.25-0.415 2.853 1.377 4.17-1.634-0.162-3.217-0.405-4.78-0.522-0.371 0.214-0.69 0.485-0.953 0.793-3.9-0.111-5.431 3.714-4.127 5.935l0.057 2e-3c0.155-0.771 1.439-2.69 3.336-2.173 0.813 2.41 4.167 4.03 10.527 0.274l0.386 0.222c-1.59 1.456-3.146 3.23-3.942 4.935 0.068 0.612 0.217 1.164 0.432 1.65-1.364 2.969 1.09 5.878 3.935 5.472l0.022-0.045c-0.566-0.434-1.423-1.753-1.099-3.134h1e-3c2.464 0.309 4.353-1.963 6.789-7.67 0.26 1.445 0.619 2.68 0.619 2.68 0.498 1.09 1.884 1.963 3.327 1.989-0.146 0.97-0.946 1.779-1.49 2.046l0.014 0.05c2.536 1.082 4.769-1.65 4.558-3.933 0.647-0.766 0.83-2.33 0.83-2.33-2.245-2.298-2.165-4.092-2.165-4.092s2.018-4.117 6.216-8.181c4.468 0.894 9.464-0.926 10.18-3.012-1.02-1.316-3.288-1.958-5.468-1.647 2.908-2.655 1.906-7.21 0.402-8.028-2.562 0.283-5.502 3.27-5.991 6.5l-7.422-6.544c3.852-2.32 8.12-5.86 10.243-10.264 2.512 2.836 6.109 4.804 10.215 4.804 6.899 0 12.49-6.17 12.49-13.78 0-4.187-2.361-8.431-5.364-12.777 5.026-7.018 11.316-14.976 11.316-23.953 0-3.832-1.003-6.474-1.807-8.371m-8.37 45.1c0 3.329-1.403 6.233-3.627 7.928-2.226-1.694-3.634-4.596-3.634-7.927 0-2.861 1.53-5.938 3.682-9.24 2.092 3.3 3.58 6.379 3.58 9.24" fill="#fff"/>
   </g>
   <g clip-path="url(#fxrba)">
    <path d="m76.302 41.731s-1.008 0.355-2.114 0.768c0 0 2.642 2.14 6.606 5.847-0.925-2.073-3.468-5.74-4.492-6.615" fill="#c9c9c9"/>
   </g>
   <g clip-path="url(#fxrba)">
    <path d="m59.41 42.263c0.865 0.164 2.951-1.226 3.197-1.432l-0.05-0.107c-0.497 0.156-3.54 0.843-4.169-0.106 4e-3 0.293 0.228 1.494 1.022 1.645" fill="#c9c9c9"/>
   </g>
   <g clip-path="url(#fxrba)">
    <path d="m117.29 41.95-7e-3 -0.016c0.322 0.645 0.617 1.329 0.878 2.05 1.187-3.756 5.46-4.262 6.897-2.596-1.521-2.683-6.498-2.267-7.768 0.562" fill="#c9c9c9"/>
   </g>
   <g clip-path="url(#fxrba)">
    <path d="m100.05 59.655a4.222 4.222 0 0 1 1.793-1.33c2.951-3.495 8.436-3.925 10.993-1.425-1.564-5.466-11.353-5.363-12.786 2.755" fill="#c9c9c9"/>
   </g>
   <g clip-path="url(#fxrba)">
    <path d="m102.14 52.114v-2e-3c1.882-3.423-0.037-5.346-0.205-5.504l-0.012-0.012c-1.137 1.409-3.287 5.553-3.201 10.603 0.62-2.384 1.886-4.052 3.418-5.086" fill="#c9c9c9"/>
   </g>
   <g clip-path="url(#fxrba)">
    <path d="m107.3 63.37c-1.069-4.189-7.98-3.647-5.824 2.845 0.56 1.608 1.09 2.491 1.23 2.75-2.967-5.966 1.719-8.017 4.594-5.595" fill="#c9c9c9"/>
   </g>
   <g clip-path="url(#fxrba)">
    <path d="m100.88 84.224c0.324-2.954 3.634-4.662 5.995-2.103l-1.174-1.675c-2.517-3.28-7.063 0.013-4.82 3.778" fill="#c9c9c9"/>
   </g>
   <g clip-path="url(#fxrba)">
    <path d="m99.59 77.704c0.766-0.674 1.864-0.999 3.136-0.704-2.926-1.89-6.758-3.22-10.784-2.913 0 0 1.024 3.297 7.648 3.617" fill="#c9c9c9"/>
   </g>
   <g clip-path="url(#fxrba)">
    <path d="m114.05 72.998c2.662-4.626-3.048-7.414-5.18-3.754 2.809-1.262 6.072 0.932 4.7 4.488 0.162-0.244 0.322-0.49 0.48-0.734" fill="#c9c9c9"/>
   </g>
   <g clip-path="url(#fxrba)">
    <path d="m104.96 47.686c7.803-4.658 14.184 3.419 14.184 11.156 0 3.673-1.188 7.152-2.94 10.492 11.564-19.988-5.696-30.546-11.244-21.648" fill="#c9c9c9"/>
   </g>
   <g clip-path="url(#fxrba)">
    <path d="m112.15 82.796c2.436-3.402 5.169-7.026 7.339-10.879-2.41 3.32-5.476 6.566-8.18 9.675 0.286 0.402 0.565 0.803 0.841 1.204" fill="#c9c9c9"/>
   </g>
   <g clip-path="url(#fxrba)">
    <path d="m108.32 84.269c-3.044 3.84-6.09 8.04-6.09 12.937 0 1.172 0.11 2.164 0.316 3.045a14.068 14.068 0 0 0 2.703 4.81 7.581 7.581 0 0 0 4.416-1.565c-2.226-1.693-3.633-4.596-3.633-7.924 0-2.861 1.528-5.938 3.68-9.24a67.206 67.206 0 0 0-1.392-2.063" fill="#c9c9c9"/>
   </g>
   <g clip-path="url(#fxrba)">
    <path d="m107.2 107.9c-5.341 0-9.67-4.088-11.047-8.612-0.063 1.86-0.555 3.62-1.344 5.26 2.512 2.836 6.109 4.805 10.215 4.805 3.8 0 7.2-1.873 9.49-4.825-1.864 2.08-4.452 3.372-7.314 3.372" fill="#c9c9c9"/>
   </g>
   <g clip-path="url(#fxrba)">
    <path d="m75.295 121.59c-1.95-1.205-2.998-2.557-3.295-4.33-0.087 4.558 0.15 7.441 0.15 7.441 2.551 0.907 3.829-1.442 3.145-3.11" fill="#c9c9c9"/>
   </g>
   <g clip-path="url(#fxrba)">
    <path d="m114.21 42.722c-2.178-1.94-3.962-4.358-6.309-8.053-0.095 1.554 0.569 4.46 2.596 7.241a8.8 8.8 0 0 1 3.712 0.812" fill="#c9c9c9"/>
   </g>
   <g clip-path="url(#fxrba)">
    <path d="m81.818 39.485s2.696-1.245 5.277-2.676c-1.632-0.382-6.07-0.272-5.277 2.676" fill="#c9c9c9"/>
   </g>
   <g clip-path="url(#fxrba)">
    <path d="m82.214 42.182c1.288 0.624 3.22 0.55 4.476-0.12 1.972 3.159 0.215 8.654 0.215 8.654s0.932-1.537 1.658-3.558c1.668 1.715 1.12 6.133-2.352 9.999 1.343-0.908 2.418-1.868 3.257-2.843 1.323 4.003-2.575 7.758-6.923 8.623a13.187 13.187 0 0 0 5.762-1.53c0.397 4.36-5.188 6.983-11.68 6.729 3.499 0.685 6.534 0.671 8.958 0.131-0.1 4.58-9.2 5.738-18.93 3 6.22 2.758 11.538 3.61 15.509 3.182-0.082 2.743-3.94 3.807-5.945 3.583-0.768 5.335 15.31 14.799 19.377 17.158-7.055-5.002-11.806-11.828-9.237-22.047a5.412 5.412 0 0 0 3.127-6.608 5.665 5.665 0 0 0 1.62-7.405 5.706 5.706 0 0 0-0.031-7.613 5.554 5.554 0 0 0-1.764-7.203c-0.037-0.026-0.075-0.045-0.112-0.07a5.257 5.257 0 0 0-1.37-4.914c0.514-1.613 0.667-3.17 0.667-3.17s-1.831 5.786-6.282 6.022" fill="#c9c9c9"/>
   </g>
   <g clip-path="url(#fxrba)">
    <path d="m62.176 51.589s-0.061-1.4 0.187-2.742c0 0 0.079-0.029 0.156-0.031 0 0 0.982 0.977 2.35 1.517 3.026-1.208 5.565-1.58 6.568-1.732 0.224-0.034 0.349-0.184 0.395-0.41h-2e-3c-1.618-0.14-5.158-0.023-9.361 0.436 0.102-0.332 0.527-1.662 1.145-2.907-1.361 0.326-2.508 0.531-2.808 0.386 0.419 1.19 1.093 2.214 1.446 2.544-1.428 0.158-2.93 0.356-4.458 0.598-4.73 0.707-6.549 0.434-6.466-1.638-0.485 3.114 1.62 8.607 10.848 3.979" fill="#c9c9c9"/>
   </g>
   <g clip-path="url(#fxrba)">
    <path d="m75.532 45.643c0.682 1.594 0.94 3.67-1.013 4.635 1.954 1.417 0.582 3.267 0.582 3.267-0.705-0.917-3.596-2.875-10.773 1.3l0.08-0.042c5.357-2.944 8.15-0.145 7.415 1.463 4.72-1.62 10.986-3.763 3.709-10.623" fill="#c9c9c9"/>
   </g>
   <g clip-path="url(#fxrba)">
    <path d="m29.893 86.653c0 0.991-0.712 1.335-1.09 1.461-0.109 0.037-0.211 0.092-0.31 0.155 1.472 1.778 4.781 2.084 9.068-1.824l0.058 0.018s0.44-1.07 0.695-1.55c-2.537 1.476-6.463 2.65-8.42 1.74" fill="#c9c9c9"/>
   </g>
   <g clip-path="url(#fxrba)">
    <path d="m49.93 88.503c1.127 0.674 2.961 0.657 4.59-1.045-0.229-1.078-0.297-2.193-0.155-3.256-2.176 3.332-4.435 4.3-4.435 4.3" fill="#c9c9c9"/>
   </g>
   <g clip-path="url(#fxrba)">
    <path d="m61.054 84.597c0.288 0.3 0.586 0.591 0.891 0.877 2.538 1.012 5.85 0.32 5.85 0.32-0.806-2.212-2.68-4.957-8.05-4.528-1.049 6.588-4.546 8.318-4.546 8.318 3.2-0.472 5.192-2.199 5.855-4.987" fill="#c9c9c9"/>
   </g>
   <g clip-path="url(#fxrba)">
    <path d="m56.43 97.261c0.142-0.23 0.31-0.454 0.498-0.671-1.154 0.268-3.972 0.758-5.235-0.294 0 0 0.917 2.7 4.417 1.829l-7e-3 0.04c0.066-0.342 0.17-0.647 0.327-0.904" fill="#c9c9c9"/>
   </g>
   <g clip-path="url(#fxrba)">
    <path d="m33.324 82.553 0.129 0.204c0.347-0.041 1.264-0.145 1.74-0.19-6.047-3.067-6.532-6.669-6.561-7.496a4.466 4.466 0 0 0-1.07 2.21c-0.431 2.39 1.113 5.248 5.762 5.272" fill="#c9c9c9"/>
   </g>
   <g clip-path="url(#fxrba)">
    <path d="m74.41 145.07c0.224 0.314 0.196 0.922 0.042 1.19a2.706 2.706 0 0 0-0.282 0.725c2.464 0.31 4.354-1.96 6.79-7.67-0.285-1.437-0.338-3.018-0.338-3.018-1.141 2.763-4.007 7.684-6.212 8.773" fill="#c9c9c9"/>
   </g>
   <g clip-path="url(#fxrba)">
    <path d="m74.824 138.11c0.47-0.43 0.943-0.837 1.4-1.202l-0.25-0.385c-4.626 1.671-9.125 1.336-10.625 0.33-0.31 0.589-0.717 1-1.437 0.759 0.812 2.41 4.164 4.03 10.523 0.274z" fill="#c9c9c9"/>
   </g>
   <g clip-path="url(#fxrba)">
    <path d="m68.999 129.4c-0.636 1.25-0.411 2.853 1.383 4.17 1.824 0.181 3.71 0.26 5.698-0.052-3.488-0.477-6.382-2.207-7.081-4.118" fill="#c9c9c9"/>
   </g>
   <g clip-path="url(#fxrba)">
    <path d="m97.58 122.88c2.909-2.657 1.906-7.21 0.403-8.03-3.502 2.594-3.941 6.403-3.912 8.336l-9.5-8.378s-2.803 1.602-4.813 2.401c-1.461 2.677 7.308 6.597 11.782 8.284-0.956 2.63-4.463 8.156-7.445 9.086 2.125 4.064 1.747 6.534 1.747 6.534 0.797-0.518 1.865 0.058 2.03 0.576 0.081 0.253 0.116 0.452 0.116 0.452 0.647-0.767 0.829-2.33 0.829-2.33-2.244-2.297-2.165-4.09-2.165-4.09s2.02-4.118 6.216-8.182c4.469 0.895 9.464-0.927 10.18-3.012-1.019-1.316-3.287-1.958-5.467-1.647" fill="#c9c9c9"/>
   </g>
   <g clip-path="url(#fxrba)">
    <path d="m85.353 35.132 2.847-6.485s-2.917-0.786-3.22 1.645a2.561 2.561 0 0 0-0.45-0.074c-1.12-0.078-2.077 0.587-2.14 1.485-0.03 0.423 0.146 0.819 0.455 1.13 0.408-0.052 0.896 0.062 1.087 0.344-0.366 0.469-1.929 0.826-3.319 0.538-0.849-0.168-1.56-0.61-1.959-1.053 0.3-0.263 0.907-0.202 1.279 7e-3 0.738-0.216 1.285-0.79 1.334-1.5 0.066-0.953-0.789-1.788-1.909-1.866a2.378 2.378 0 0 0-0.607 0.036c0.985-2.556-1.514-3.38-1.514-3.38 1.402 5.904-2.86 8.456-5.064 8.903v0.098c4.525 0.066 8.047 1.013 8.047 1.013 1.438-1.19 3.451-1.172 5.133-0.84" fill="#c9c9c9"/>
   </g>
   <g clip-path="url(#fxrba)">
    <path d="m35.745 78.708-0.136 0.175c0.886 0.55 2.061 1.068 3.589 1.547-1.663-1.592-3.752-6.056-3.26-8.527-1.8 1.33-2.779 3.934-0.193 6.805" fill="#c9c9c9"/>
   </g>
   <g clip-path="url(#fxrba)">
    <path d="m74.777 94.501c0.996 10.187-24.436-6.421-12.495 18.946-4.315 0.305-6.5-0.984-8.191-2.933-2.952-2.733-2.855-7.647-2.855-7.647-3.771 0.855-4.473 6.701-1.24 9.365-2.479-0.392-5.488-1.328-7.879-2.986-1.309 1.698-1.322 4.538 0.72 5.746 0.911 0.343 2.055 0.538 3.451 0.517l0.053 0.062c0.798 0.02 1.467 0.218 1.467 0.218-1.655 0.783-3.693 2.133-4.639 3.198-0.12 0.17-0.212 0.351-0.284 0.534 0.938 0.623 1.849 2.643 0.987 3.04a0.942 0.942 0 0 0-0.208 0.121c3.336 1.324 6.083-1.599 7.46-3.608-0.325 1.84-0.275 3.544-0.048 4.455 0.42 1.683 1.578 2.949 2.916 3.1 0.07 1.074-1.045 2.01-1.704 2.258l8e-3 0.047c2.27 1.242 5.001-0.761 4.994-3.352a6.384 6.384 0 0 0 1.119-1.126c-1.423-2.44-1.805-4.278-1.893-5.307 0.584-1.525 2.308-2.424 6.017-3.087 2.903 2.918 6.14 1.878 6.831 1.611 0.174-1.055-0.263-2.21-1.785-2.835 1.771-1.01 2.482-3.454 2.084-4.339-0.55 0.02-1.935 0.924-3.162 2.635 0 0-0.2-0.819-0.322-1.62-0.95-6.786 0.18-7.321 8.728-5.325 0.73-1.678 1.574-3.533 2.517-5.597 1.066-2.33-0.247-4.212-2.647-6.09" fill="#c9c9c9"/>
   </g>
   <g clip-path="url(#fxrba)">
    <path d="m42.955 87.513s1.12-0.276 7.304-1.244c0.355-1.316 0.983-2.446 1.856-3.247 0 0-4.879 1.108-7.85 2.89-1.308-1.153-2.844-1.259-2.844-1.259-1.004 5.607-1.92 7.373-1.92 7.373 1.66 0.08 1.909 1.343 1.78 1.945-0.072 0.329-0.192 0.631-0.35 0.91 1.422-0.612 1.99-1.989 1.99-1.989s0.192-1.649 0.034-5.38" fill="#c9c9c9"/>
   </g>
   <g clip-path="url(#fxrba)">
    <path d="m36.8 60.001c0.754-0.1 1.221-0.346 1.221-0.346 0.281-0.61 0.874-2.21 1.395-3.668 1.025 1.672 4.227 6.225 4.863 7.073-1.246 0.244-2.1 0.793-2.486 1.035 0.042 1.592 1.083 3.162 3.737 3.453-1.755 1.363-1.695 4.053-0.942 5.133 2.72-1.612 3.161-4.853 5.356-2.588a69.387 69.387 0 0 0 2.86 3.11c2.515-1.82 5.603-3.767 10.389-3.012-2.102-0.855-5.322-1.267-8.048-0.252l-0.164-0.512c5.075-7.27 15.342-4.607 21.585-5.764-4.315 0.185-12.09-2.345-18.349 1.206l-0.17-0.613a21.386 21.386 0 0 1 1.847-1.735s-12.452-6.991-15.004-6.124c0.33-2.38-0.368-4.179-1.691-6.202-2.09-3.218 0.964-6.807 2.747-11.008-1.889-2.356-7.147 0.058-5.894 6.898l-0.024 0.012c-1.815-3.108-2.352-6.041-3.544-9.188-0.022-5e-3 -0.045-0.01-0.067-0.013-2.547 0.63-4.847 4.903-0.784 9.395 1.212 0.655 1.798 1.432 1.798 1.432l0.024 0.1c-3.623-0.164-7.15-1.406-7.15-1.406 0.076 1.216-0.705 3.007-1.561 2.726a1.802 1.802 0 0 0-0.56-0.087c0.616 1.92 2.32 3.37 6.97 3.111a22.515 22.515 0 0 0 1.65-0.157c-1.111 1.418-3.02 4.157-2.283 5.411 0.5-0.205 1.554 0.118 1.766 0.574-0.595 1.498-2.422 3.197-4.113 2.711 1.3 0.598 3.114 0.451 4.626-0.705" fill="#c9c9c9"/>
   </g>
  </g>
 </g>
</svg>
