<?xml version="1.0" encoding="UTF-8" standalone="no"?>
<svg
   xmlns:dc="http://purl.org/dc/elements/1.1/"
   xmlns:cc="http://creativecommons.org/ns#"
   xmlns:rdf="http://www.w3.org/1999/02/22-rdf-syntax-ns#"
   xmlns:svg="http://www.w3.org/2000/svg"
   xmlns="http://www.w3.org/2000/svg"
   viewBox="0 0 380 498.66666"
   height="498.66666"
   width="380"
   xml:space="preserve"
   id="svg2"
   version="1.1"><metadata
     id="metadata8"><rdf:RDF><cc:Work
         rdf:about=""><dc:format>image/svg+xml</dc:format><dc:type
           rdf:resource="http://purl.org/dc/dcmitype/StillImage" /></cc:Work></rdf:RDF></metadata><defs
     id="defs6" /><g
     transform="matrix(1.3333333,0,0,-1.3333333,0,498.66667)"
     id="g10"><g
       transform="scale(0.1)"
       id="g12"><path
         id="path14"
         style="fill:#ffe500;fill-opacity:1;fill-rule:evenodd;stroke:none"
         d="m 1496.58,3735.02 c 51.15,-463.56 -4.02,-815.41 -329.36,-1169.05 C 895.414,2270.53 381.109,2225.94 355.316,1378.04 341.957,938.848 763.43,366.863 1400.05,355.324 2036.68,343.781 2485.6,890.32 2496.7,1379.35 c 9.94,438.18 -224.68,832.78 -637.41,1024.08 561.51,216.21 928.55,704.84 911.09,1331.59 h -1273.8" /><path
         id="path16"
         style="fill:#ed1c24;fill-opacity:1;fill-rule:evenodd;stroke:none"
         d="M 1511.71,3609.33 H 1883.4 C 1795.13,2600.13 1195.7,2433.37 967.328,2318.46 655.848,2161.73 419.285,1812.97 419.285,1423.84 c 0,-553.442 451.391,-1004.832 1004.825,-1004.832 553.44,0 1004.83,451.39 1004.83,1004.832 0,389.49 -226.05,733.41 -551.42,900.04 l 81.18,31.67 c 322.32,-185.89 540.08,-534.19 540.08,-931.71 0,-591.906 -482.76,-1074.668 -1074.67,-1074.668 -591.903,0 -1074.661,482.762 -1074.661,1074.668 0,388.43 206.582,732.06 518.129,918.7 419.392,251.25 670.332,641.95 644.132,1266.79" /><path
         id="path18"
         style="fill:#ffffff;fill-opacity:1;fill-rule:evenodd;stroke:none"
         d="m 1424.11,613.246 c 446.46,0 810.59,364.133 810.59,810.594 0,446.46 -364.13,810.59 -810.59,810.59 -446.454,0 -810.587,-364.13 -810.587,-810.59 0,-446.461 364.133,-810.594 810.587,-810.594" /><path
         id="path20"
         style="fill:#00a650;fill-opacity:1;fill-rule:evenodd;stroke:none"
         d="m 1634.56,2259.41 132.47,32.26 c 346.85,-143.65 589.55,-482.64 589.55,-867.83 0,-513.586 -418.88,-932.469 -932.47,-932.469 -513.579,0 -932.458,424.297 -932.462,932.469 -0.007,508.17 420.653,888.28 934.232,943.07 364.15,49.77 767.08,447.23 864.42,928.86 h 429.27 c -175.98,-601.13 -669.52,-809.59 -852.13,-895.59 -204.51,-96.31 -372.76,-105.8 -476.64,-113.07 -459.698,-32.18 -830.601,-398.6 -830.601,-863.27 0,-475.828 388.086,-863.91 863.911,-863.91 475.83,0 863.91,388.082 863.91,863.91 0,241.62 -100.08,460.63 -260.9,617.68 -96.49,94.23 -241.51,170.66 -392.56,217.89" /><path
         id="path22"
         style="fill:#231f20;fill-opacity:1;fill-rule:evenodd;stroke:none"
         d="m 1592.01,1620.25 c -3.45,-7.82 3.45,-16.13 4.92,-23.71 26.12,-77.28 51.98,-154.8 78.09,-232.08 83.27,-26.65 166.78,-52.57 250.3,-78.98 47.05,50.62 96.81,99.04 143.86,149.66 4.2,5.13 10.6,10.27 10.11,17.36 -0.5,117.63 -43.61,231.34 -106.43,329.89 -2.71,3.91 -5.17,9.05 -10.84,8.8 -72.67,12.47 -145.34,25.68 -218.02,37.67 -50.25,-69.95 -101.49,-138.91 -151.99,-208.61 z m -143.62,-439.93 c -0.5,-86.81 -0.25,-173.62 0,-260.683 59.61,-29.344 119.23,-58.934 178.84,-88.524 7.64,-3.668 15.28,-8.316 23.66,-9.781 17.73,4.891 34.49,13.203 51.24,20.781 46.8,22.746 93.36,47.692 133.52,81.438 39.16,32.769 77.35,67.984 108.39,108.579 0.49,4.4 -0.49,8.8 -0.99,12.96 -10.59,70.43 -19.95,140.86 -30.79,211.29 -82.28,26.65 -164.56,53.79 -246.84,80.45 -72.43,-52.09 -146.08,-102.46 -217.03,-156.51 z m -498.367,74.1 c -10.593,-68.72 -18.726,-137.92 -28.578,-206.64 -0.738,-6.11 -2.215,-12.23 -1.476,-18.1 43.355,-48.907 88.441,-97.817 144.111,-132.785 45.82,-30.079 94.11,-57.223 146.33,-75.075 4.19,-0.98 8.13,2.196 12.07,3.664 64.55,31.551 130.07,61.141 193.88,94.153 0.25,84.853 0.25,169.713 0,254.573 0.99,5.38 -4.19,8.07 -7.64,10.76 -69.96,50.62 -139.68,101.24 -209.4,151.86 -83.26,-27.39 -166.03,-55.02 -249.297,-82.41 z m -45.574,535.8 c -4.191,-1.22 -9.851,-0.74 -12.074,-5.14 -64.051,-100.02 -108.395,-215.93 -107.648,-335.76 -0.747,-4.89 3.691,-8.07 6.648,-11.49 49.516,-50.62 98.785,-101.49 148.301,-152.11 76.614,23.48 152.734,48.42 229.354,72.14 7.39,2.45 15.02,4.65 21.68,8.8 3.93,7.1 5.66,15.16 8.37,22.75 24.39,76.54 49.27,152.84 73.41,229.63 -50.99,69.94 -101.99,140.12 -152.98,210.06 -71.69,-12.72 -143.377,-26.17 -215.061,-38.88 z m 350.801,255.79 c -8.13,-1.46 -10.59,-10.03 -14.04,-16.14 -32.52,-61.38 -65.04,-122.76 -98.05,-183.66 15.77,-19.8 30.79,-40.58 45.32,-61.37 34.25,-50.63 72.68,-98.07 108.9,-147.21 90.16,-0.5 180.57,0 270.73,-0.25 49.02,66.76 97.55,134.01 146.58,201.01 2.71,3.91 6.65,8.32 2.71,12.96 -31.53,63.1 -66.27,124.23 -99.52,186.59 -2.22,3.18 -3.7,8.07 -7.89,8.81 -36.95,9.54 -74.64,16.87 -112.58,21.02 -81.05,5.87 -164.32,2.94 -242.16,-21.76 z m -260.391,58.45 c 32.271,18.83 65.781,35.7 98.541,53.8 54.19,-19.57 103.47,-49.4 151.26,-80.95 72.91,20.3 149.28,29.59 225.16,25.19 49.76,-2.93 99.03,-11.98 147.56,-23.97 4.44,-1.95 8.37,1.96 11.83,4.17 43.11,30.07 88.68,57.46 138.45,74.58 5.16,1.22 9.36,-2.94 14.04,-4.65 54.93,-26.9 106.66,-60.15 155.69,-96.59 32.52,-25.19 61.59,-54.78 90.16,-84.37 -1.48,-56.49 -16.5,-111.51 -29.32,-166.04 0,-1.23 0.25,-3.67 0.25,-4.9 35.97,-49.15 59.86,-106.13 81.79,-162.87 16.75,-61.13 30.79,-123.73 33.25,-187.32 44.84,-30.81 81.3,-71.65 118.5,-110.77 6.41,-5.87 2.71,-15.41 2.46,-22.99 -7.39,-50.87 -21.68,-100.51 -35.96,-149.66 -15.27,-42.8 -32.77,-84.86 -55.92,-123.99 -3.21,-4.4 -5.18,-10.76 -11.09,-12.22 -50.99,-11.75 -102.97,-19.08 -155.44,-19.32 -10.6,1.22 -15.03,-10.03 -21.19,-16.387 -28.83,-33.5 -59.37,-65.781 -93.86,-93.66 -40.4,-30.082 -82.04,-58.938 -127.36,-80.945 -19.71,-9.293 -38.93,-20.543 -60.36,-25.43 -5.91,-0.98 -9.36,-6.359 -11.33,-11.742 -9.61,-29.59 -23.4,-57.711 -36.95,-85.832 -10.59,-20.543 -19.71,-42.801 -36.95,-58.938 -19.22,-5.383 -39.42,-6.847 -59.37,-9.539 -60.36,-7.582 -121.7,-7.09 -182.3,-1.711 -25.38,2.938 -50.75,6.36 -75.14,13.449 -30.79,45.977 -53.46,96.84 -73.17,148.196 -1.22,4.648 -6.65,5.379 -10.34,7.09 -47.3,16.14 -91.15,40.597 -132.79,67.984 -27.83,15.406 -51.72,36.68 -75.378,57.715 -19.707,18.828 -40.152,37.414 -57.398,58.441 -9.114,10.52 -17.985,21.039 -28.332,29.839 -7.387,2.2 -15.27,1.22 -22.661,1.71 -45.328,0.73 -90.414,7.83 -134.261,18.83 -5.664,1.47 -12.809,2.2 -15.028,8.8 -29.316,57.72 -54.441,117.63 -72.672,179.99 -10.097,37.17 -18.722,75.32 -20.691,113.96 6.895,11.98 16.75,22 25.867,32.28 28.082,30.08 58.629,57.46 91.637,82.41 5.668,2.69 4.684,9.29 5.176,14.43 1.23,62.6 15.031,124.22 35.965,183.16 20.699,55.76 45.578,110.54 79.574,159.94 -15.52,54.53 -29.317,110.04 -30.547,167.02 49.516,47.44 100.508,94.39 158.648,131.81" /><path
         id="path24"
         style="fill:#231f20;fill-opacity:1;fill-rule:evenodd;stroke:none"
         d="m 87.8516,1431.89 34.4724,-1.2 -3.105,-88.99 -81.4729,2.84 c -8.0781,8.96 -15.0195,21.74 -20.8281,38.39 -5.7578,16.65 -8.37112,33.38 -7.78128,50.19 0.74609,21.38 5.87498,39.89 15.38278,55.48 9.5547,15.59 22.7813,27.09 39.7696,34.51 16.9922,7.41 35.2773,10.78 54.8949,10.09 21.285,-0.74 40.078,-5.88 56.336,-15.36 16.21,-9.53 28.472,-23.02 36.679,-40.57 6.348,-13.32 9.16,-29.77 8.481,-49.3 -0.887,-25.38 -6.914,-45.05 -18.032,-58.91 -11.164,-13.92 -26.199,-22.59 -45.152,-26.03 l -6.234,41.26 c 10.148,2.56 18.293,7.71 24.379,15.46 6.086,7.75 9.339,17.55 9.754,29.45 0.628,18.05 -4.586,32.58 -15.641,43.65 -11.102,11.06 -27.867,16.94 -50.391,17.72 -24.238,0.85 -42.6638,-3.89 -55.1794,-14.27 -12.5195,-10.34 -19.0586,-24.27 -19.668,-41.75 -0.3047,-8.66 1.1055,-17.39 4.1836,-26.22 3.0781,-8.79 6.961,-16.4 11.5508,-22.81 l 25.9492,-0.91 z m -69.2071,-125.16 203.1095,24.93 5.043,-41.04 -79.926,-9.82 9.871,-80.34 79.918,9.81 5.035,-41 -203.113,-24.94 -5.0312,41.01 88.8082,10.9 -9.863,80.34 -88.8124,-10.9 z M 99.043,924.266 86.6484,967.5 l 39.7736,29.992 -22.547,78.638 -49.3477,3.39 -12.0859,42.14 218.6836,-20.21 12.035,-42 z m 56.84,95.454 65.23,48.05 -80.617,5.63 z m -46.688,-114.525 185.461,86.485 16.996,-36.446 -88.445,-133.664 123.844,57.75 16.226,-34.8 -185.457,-86.485 -17.539,37.61 86.094,131.144 -120.949,-56.398 z m 189.262,-341.679 -24.496,37.722 29.269,40.309 -44.554,68.613 -48.188,-11.183 -23.875,36.761 215.039,44.602 23.793,-36.641 z m 26.449,107.902 48.328,65.02 -78.742,-18.188 z m 31.52,-176.668 147.203,142.152 97.469,-100.933 -24.918,-24.063 -68.742,71.188 -34.821,-33.625 59.344,-61.457 -24.918,-24.059 -59.344,61.449 -62.547,-60.398 z m 177.687,-41.516 c 12.852,16.446 26.059,28.317 39.684,35.625 10.074,5.309 20.848,8.805 32.297,10.383 11.422,1.535 22.148,0.953 32.164,-1.789 13.398,-3.582 26.605,-10.515 39.75,-20.777 23.765,-18.571 37.012,-40.774 39.75,-66.676 2.769,-25.863 -6.113,-51.934 -26.617,-78.18 -20.356,-26.054 -43.352,-40.859 -69.004,-44.519 -25.625,-3.621 -50.293,3.804 -73.949,22.281 -23.989,18.746 -37.344,40.969 -40.086,66.633 -2.715,25.703 5.976,51.379 26.011,77.019 z m 34.379,-25.105 c -14.258,-18.246 -20.836,-35.414 -19.789,-51.41 1.082,-16.024 8.117,-29.078 21.11,-39.227 12.953,-10.117 27.25,-13.793 42.921,-10.918 15.602,2.867 30.707,13.614 45.317,32.313 14.429,18.468 21.14,35.414 20.199,50.847 -1.012,15.422 -8.242,28.383 -21.645,38.856 -13.437,10.5 -27.859,14.332 -43.269,11.555 -15.367,-2.805 -30.324,-13.43 -44.844,-32.016 z M 697.156,325.34 c 10.434,18.074 21.864,31.668 34.34,40.805 9.238,6.66 19.418,11.617 30.539,14.773 11.09,3.113 21.801,4.027 32.094,2.703 13.773,-1.68 27.816,-6.707 42.262,-15.043 26.117,-15.082 42.324,-35.223 48.64,-60.492 6.34,-25.227 1.176,-52.281 -15.476,-81.125 -16.535,-28.637 -37.246,-46.492 -62.137,-53.691 -24.871,-7.149 -50.336,-3.231 -76.332,11.777 -26.367,15.223 -42.684,35.371 -48.969,60.402 -6.265,25.074 -1.23,51.711 15.039,79.891 z m 37.535,-20.078 c -11.574,-20.051 -15.703,-37.969 -12.437,-53.66 3.301,-15.719 12.086,-27.668 26.359,-35.907 14.239,-8.222 28.91,-9.867 44.024,-4.843 15.051,5.007 28.515,17.757 40.383,38.304 11.718,20.301 16.003,38.016 12.921,53.164 -3.144,15.133 -12.105,26.961 -26.836,35.469 -14.769,8.527 -29.585,10.313 -44.457,5.418 -14.832,-4.914 -28.164,-17.516 -39.957,-37.945 z m 157.754,-192.711 58.145,159.742 -57.039,20.762 11.847,32.55 152.802,-55.617 -11.84,-32.55 -56.907,20.71 -58.144,-159.7417 z m 166.785,151.797 79.71,-18.403 c 15.78,-3.644 27.42,-7.015 34.87,-10.152 7.45,-3.09 13.74,-7.426 18.9,-13.02 5.16,-5.589 8.95,-12.285 11.42,-20.191 2.49,-7.863 2.73,-16.129 0.75,-24.723 -2.15,-9.328 -6.64,-17.339 -13.46,-23.98 -6.86,-6.629 -15.03,-10.906 -24.52,-12.82 11.3,-6.325 19.28,-14.528 23.82,-24.52 4.58,-10.055 5.51,-20.8359 2.85,-32.3437 -2.09,-9.0547 -6.21,-17.3945 -12.42,-25.0078 -6.2,-7.5664 -13.54,-13.1055 -22.01,-16.5312 -8.46,-3.4258 -18.2,-4.5 -29.2,-3.2305 -6.85,0.8437 -23.15,4.1211 -48.87,9.8633 L 1013.2,64.957 Z m 32.63,-42.496 -10.64,-46.098 26.37,-6.09 c 15.69,-3.621 25.49,-5.641 29.41,-6.055 7.05,-0.796 13.03,0.317 17.88,3.352 4.86,3.035 8.01,7.785 9.5,14.238 1.42,6.172 0.91,11.571 -1.59,16.207 -2.54,4.649 -7.07,8.137 -13.57,10.469 -3.88,1.383 -15.3,4.266 -34.24,8.637 z m -18.3,-79.293 -12.31,-53.2934 37.23,-8.5976 c 14.54,-3.3516 23.81,-5.1055 27.9,-5.168 6.24,-0.3125 11.74,1.25 16.46,4.5625 4.74,3.3555 7.95,8.5781 9.58,15.6367 1.38,5.9888 1.06,11.3908 -0.85,16.2348 -1.96,4.855 -5.43,8.882 -10.47,12.046 -5.04,3.172 -16.76,6.852 -35.05,11.079 z m 324.83,-138.68009 -44.86,3.14062 -14.58,47.63277 -81.61,5.7071 -20.07,-45.211 -43.73,3.0586 93.79,198.574 43.59,-3.047 z m -70.25,86.06249 -22.84,77.7266 -32.87,-73.8321 z m 93.75,-85.26562 -7.08,202.84422 41.28,1.441 5.88,-168.3672 102.66,3.582 1.21,-34.47267 z m 174.3,8.75782 -35.24,199.8864 40.68,7.172 29.25,-165.9139 101.16,17.8399 6,-33.9727 z m 409.13,108.2544 -42.77,-13.903 -31.37,38.703 -77.8,-25.277 -1.67,-49.4376 -41.69,-13.5468 12.58,219.2504 41.55,13.503 z m -97.38,53.472 -50.29,63.512 -2.81,-80.77 z m 74.35,16.031 34.41,21.18 c 8.07,-11.113 16.83,-17.867 26.28,-20.308 9.4,-2.415 19.75,-0.918 31.05,4.593 11.95,5.832 19.76,12.762 23.31,20.805 3.61,8.019 3.77,15.406 0.47,22.176 -2.13,4.371 -5.21,7.422 -9.26,9.211 -4.03,1.851 -9.78,2.332 -17.25,1.449 -5.07,-0.567 -16.3,-2.758 -33.64,-6.445 -22.32,-4.786 -39.25,-5.516 -50.76,-2.227 -16.24,4.594 -27.9,14.168 -35.01,28.73 -4.57,9.379 -6.18,19.407 -4.85,30.176 1.34,10.727 5.98,20.676 13.87,29.824 7.95,9.129 18.93,17.137 33.07,24.032 23.13,11.277 42.93,14.679 59.55,10.277 16.6,-4.469 29.3,-14.969 38.15,-31.594 l -36.33,-19.734 c -6.21,8.691 -12.95,13.828 -20.18,15.391 -7.25,1.605 -16.09,-0.161 -26.54,-5.254 -10.79,-5.262 -18.2,-11.586 -22.11,-19.008 -2.56,-4.746 -2.68,-9.516 -0.36,-14.27 2.13,-4.367 5.79,-7.195 10.98,-8.48 6.59,-1.664 19.99,-0.219 40.12,4.351 20.17,4.532 35.67,6.641 46.54,6.321 10.88,-0.364 20.68,-3.274 29.47,-8.793 8.74,-5.539 15.94,-14.114 21.61,-25.719 5.14,-10.535 7.05,-21.848 5.65,-33.871 -1.38,-12.07 -6.3,-22.953 -14.83,-32.629 -8.52,-9.715 -20.79,-18.461 -36.76,-26.25 -23.26,-11.344 -43.73,-14.699 -61.43,-10.031 -17.7,4.676 -32.8,16.711 -45.22,36.097 z m 160.84,84.715 30.67,26.305 c 9.72,-9.715 19.42,-15.02 29.14,-15.945 9.66,-0.918 19.65,2.179 29.95,9.394 10.89,7.625 17.51,15.692 19.76,24.192 2.32,8.484 1.32,15.808 -3,21.976 -2.79,3.981 -6.31,6.52 -10.59,7.649 -4.27,1.199 -10.02,0.773 -17.26,-1.266 -4.92,-1.356 -15.67,-5.273 -32.22,-11.629 -21.29,-8.219 -37.9,-11.586 -49.79,-10.137 -16.75,1.993 -29.77,9.629 -39.06,22.899 -5.99,8.543 -9.14,18.203 -9.52,29.043 -0.36,10.804 2.67,21.359 9.02,31.625 6.43,10.261 16.04,19.89 28.91,28.91 21.08,14.758 40.11,21.219 57.22,19.469 17.09,-1.821 31.28,-10.203 42.62,-25.239 l -32.8,-25.175 c -7.48,7.617 -14.95,11.636 -22.34,12.046 -7.41,0.45 -15.86,-2.675 -25.39,-9.343 -9.83,-6.887 -16.16,-14.289 -18.87,-22.227 -1.78,-5.094 -1.15,-9.824 1.89,-14.156 2.78,-3.981 6.84,-6.199 12.16,-6.656 6.77,-0.614 19.78,2.906 38.96,10.574 19.2,7.633 34.19,12.14 44.97,13.523 10.81,1.344 20.94,0 30.48,-4.078 9.51,-4.105 17.96,-11.441 25.37,-22.023 6.72,-9.598 10.38,-20.469 10.88,-32.571 0.53,-12.132 -2.63,-23.652 -9.55,-34.543 -6.88,-10.929 -17.64,-21.484 -32.2,-31.679 -21.19,-14.84 -40.88,-21.356 -59.1,-19.512 -18.22,1.844 -35.01,11.375 -50.31,28.574 z m 123.39,133.426 c -14.23,15.262 -23.89,30.164 -28.97,44.77 -3.67,10.777 -5.44,21.964 -5.2,33.519 0.26,11.52 2.52,22.027 6.79,31.484 5.64,12.68 14.55,24.641 26.75,36.012 22.05,20.571 46.06,30.18 72.06,28.836 25.98,-1.312 50.35,-14.164 73.06,-38.523 22.55,-24.18 33.58,-49.207 33.18,-75.121 -0.44,-25.871 -11.63,-49.079 -33.58,-69.551 -22.27,-20.762 -46.31,-30.473 -72.08,-29.168 -25.81,1.34 -49.81,13.941 -72.01,37.742 z m 30.18,30.027 c 15.79,-16.933 31.72,-26.121 47.68,-27.586 16,-1.437 29.99,3.469 42.05,14.711 12.02,11.207 17.88,24.758 17.5,40.684 -0.39,15.859 -8.64,32.461 -24.83,49.816 -15.99,17.141 -31.67,26.422 -47.06,27.903 -15.39,1.41 -29.32,-3.696 -41.76,-15.297 -12.48,-11.633 -18.52,-25.274 -18.19,-40.93 0.37,-15.621 8.53,-32.051 24.61,-49.301 z m 226.15,210.09 35.04,23.125 c 13.5,-18.836 19.97,-37.195 19.41,-55.144 -0.56,-17.875 -7.76,-35.399 -21.59,-52.469 -17.08,-21.109 -38.37,-32.625 -63.77,-34.547 -25.45,-1.898 -50.71,7.27 -75.7,27.508 -26.47,21.441 -41.47,44.93 -45.08,70.469 -3.55,25.504 3.66,49.402 21.71,71.695 15.74,19.434 34.28,30.598 55.63,33.418 12.65,1.769 26.8,-0.738 42.48,-7.422 l -18.16,-37.957 c -9.76,4.836 -19.46,6.184 -29.09,4.055 -9.6,-2.09 -17.85,-7.43 -24.75,-15.946 -9.53,-11.777 -13.07,-24.781 -10.53,-38.98 2.5,-14.168 13.23,-28.926 32.19,-44.281 20.11,-16.278 37.34,-24.289 51.74,-23.934 14.4,0.297 26.27,6.254 35.63,17.805 6.92,8.554 10.16,18.074 9.69,28.629 -0.42,10.523 -5.41,21.859 -14.85,33.976 z m 97.43,13.864 -169.65,114.429 23.1,34.246 169.65,-114.429 z m 127.43,232.523 -20.42,-40.074 -49.54,5.191 -37.14,-72.89 33.77,-36.137 -19.9,-39.059 -146.14,163.926 19.83,38.93 z m -106.67,-31.043 -80.47,9.344 55.11,-59.098 z m 116.87,79.145 -158.71,60.922 -21.75,-56.672 -32.34,12.414 58.28,151.808 32.34,-12.41 -21.71,-56.53 158.71,-60.923 z m 38.18,122.352 -198.55,49.51 9.99,40.08 198.56,-49.51 z m -81.26,80.03 c -20.71,2.54 -37.69,7.75 -50.97,15.67 -9.75,5.9 -18.29,13.33 -25.54,22.33 -7.2,9 -12.22,18.5 -15.03,28.49 -3.84,13.33 -4.69,28.23 -2.66,44.78 3.67,29.93 15.88,52.72 36.67,68.41 20.75,15.7 47.67,21.51 80.73,17.45 32.81,-4.03 57.35,-16.11 73.7,-36.22 16.3,-20.1 22.64,-45.07 18.98,-74.86 -3.71,-30.22 -15.88,-53.11 -36.46,-68.68 -20.64,-15.56 -47.12,-21.34 -79.42,-17.37 z m 3.81,42.39 c 22.99,-2.82 41.09,0.39 54.26,9.52 13.18,9.18 20.75,21.93 22.75,38.3 2.01,16.31 -2.21,30.46 -12.74,42.42 -10.5,11.89 -27.49,19.31 -51.04,22.2 -23.26,2.85 -41.25,-0.12 -53.99,-8.88 -12.69,-8.81 -20.08,-21.68 -22.16,-38.56 -2.08,-16.93 2.07,-31.26 12.38,-43.04 10.33,-11.73 27.13,-19.08 50.54,-21.96 z m 125.06,177.12 -204.51,-7.15 -1.4,40.2 133.64,88.47 -136.57,-4.76 -1.34,38.37 204.52,7.15 1.44,-41.48 -130.49,-87.08 133.37,4.66 1.34,-38.38" /><path
         id="path26"
         style="fill:#231f20;fill-opacity:1;fill-rule:evenodd;stroke:none"
         d="m 2057.04,3535.04 33.32,101.65 33.04,-101.65 h 107.03 l -85.61,-64.68 32,-99 -86.3,60.62 -88.13,-59.44 34.02,97.82 -86.03,64.68 h 106.66" /></g></g></svg>