<svg id="svg" version="1.1" xmlns="http://www.w3.org/2000/svg" xmlns:xlink="http://www.w3.org/1999/xlink" width="400" height="506.84039087947883" viewBox="0, 0, 400,506.84039087947883"><g id="svgg"><path id="path0" d="M73.508 31.099 C 72.980 31.699,72.946 32.433,73.273 36.200 C 73.867 43.049,73.840 44.097,72.943 49.000 C 72.782 49.880,72.684 50.737,72.726 50.905 C 72.911 51.638,70.438 60.096,69.874 60.659 C 69.723 60.810,69.598 61.218,69.596 61.567 C 69.580 64.199,62.183 75.890,58.211 79.561 C 57.117 80.573,55.459 82.165,54.526 83.100 C 53.593 84.035,52.651 84.800,52.433 84.800 C 52.038 84.800,50.667 85.672,47.998 87.622 C 44.895 89.889,36.262 92.402,28.100 93.414 C 25.314 93.760,25.521 92.580,25.342 109.143 C 25.066 134.795,26.883 175.806,29.004 191.800 C 29.354 194.440,29.800 198.580,29.995 201.000 C 30.325 205.095,31.632 215.200,32.427 219.800 C 32.618 220.900,32.896 223.021,33.046 224.513 C 33.196 226.005,33.472 227.321,33.659 227.437 C 33.847 227.552,34.000 228.141,34.000 228.744 C 34.000 229.347,34.356 231.451,34.791 233.420 C 35.227 235.389,35.587 238.041,35.591 239.314 C 35.597 240.706,35.844 242.001,36.213 242.564 C 36.550 243.078,36.899 244.107,36.989 244.849 C 37.079 245.592,37.354 247.010,37.598 248.000 C 38.330 250.958,38.833 253.327,38.998 254.600 C 39.157 255.818,39.771 258.398,40.435 260.628 C 40.636 261.304,40.800 262.356,40.800 262.967 C 40.800 264.168,41.907 268.349,42.398 269.000 C 42.564 269.220,42.825 270.300,42.979 271.400 C 43.311 273.777,44.281 277.520,44.817 278.495 C 45.028 278.877,45.200 279.607,45.200 280.117 C 45.200 280.627,45.539 282.115,45.954 283.422 C 46.369 284.730,47.020 286.970,47.402 288.400 C 47.783 289.830,48.422 292.080,48.823 293.400 C 49.223 294.720,49.817 296.700,50.142 297.800 C 50.754 299.866,51.827 303.089,53.405 307.600 C 54.877 311.805,55.621 314.104,56.018 315.669 C 56.222 316.476,56.739 317.736,57.165 318.469 C 57.592 319.201,58.328 320.970,58.802 322.400 C 59.927 325.800,63.060 333.889,63.811 335.332 C 64.135 335.955,64.400 336.631,64.400 336.833 C 64.400 337.036,65.660 339.811,67.200 343.000 C 68.740 346.189,70.000 348.890,70.000 349.002 C 70.000 349.598,75.967 361.214,76.902 362.438 C 77.506 363.229,78.000 364.148,78.000 364.481 C 78.000 365.130,80.037 369.197,81.669 371.808 C 82.216 372.684,83.153 374.390,83.751 375.600 C 85.253 378.641,87.658 382.583,88.682 383.682 C 89.152 384.187,89.856 385.410,90.247 386.400 C 90.638 387.390,91.193 388.438,91.479 388.729 C 91.766 389.019,92.000 389.411,92.000 389.600 C 92.000 389.789,92.232 390.181,92.515 390.471 C 92.798 390.762,93.461 391.720,93.989 392.600 C 94.824 393.995,98.230 399.176,100.000 401.745 C 100.330 402.224,101.406 403.693,102.391 405.008 C 103.375 406.324,104.777 408.284,105.506 409.364 C 106.235 410.444,107.547 412.064,108.420 412.964 C 109.294 413.864,110.117 414.960,110.249 415.400 C 110.498 416.232,112.670 418.999,115.319 421.861 C 116.165 422.775,117.285 424.103,117.809 424.812 C 118.625 425.918,121.443 429.129,124.700 432.664 C 125.195 433.202,125.600 433.827,125.600 434.054 C 125.600 434.282,128.615 437.430,132.300 441.050 C 139.498 448.121,139.485 448.108,141.628 450.324 C 143.655 452.420,149.714 457.927,150.847 458.703 C 151.371 459.062,153.534 460.806,155.653 462.578 C 160.395 466.543,164.215 469.605,165.410 470.400 C 171.519 474.464,174.400 476.514,174.400 476.800 C 174.400 476.990,174.800 477.273,175.289 477.428 C 175.779 477.584,177.675 478.676,179.503 479.855 C 181.332 481.035,182.929 482.000,183.052 482.000 C 183.176 482.000,183.754 482.339,184.338 482.754 C 184.922 483.169,186.930 484.313,188.800 485.295 C 190.670 486.278,192.880 487.468,193.712 487.941 C 196.146 489.323,197.645 488.850,205.721 484.151 C 206.998 483.408,208.213 482.800,208.421 482.800 C 208.630 482.800,208.800 482.620,208.800 482.400 C 208.800 482.180,208.974 482.000,209.186 482.000 C 209.398 482.000,211.107 481.010,212.982 479.800 C 214.858 478.590,216.636 477.600,216.934 477.600 C 217.232 477.600,217.819 477.213,218.238 476.739 C 218.657 476.266,219.720 475.406,220.600 474.828 C 225.084 471.882,233.532 465.605,234.562 464.452 C 234.981 463.984,235.521 463.597,235.762 463.593 C 236.003 463.589,236.650 463.110,237.200 462.528 C 237.750 461.946,239.280 460.574,240.600 459.479 C 246.085 454.928,257.402 444.310,261.800 439.587 C 267.442 433.529,268.708 432.115,272.348 427.800 C 274.390 425.380,276.542 422.876,277.130 422.235 C 277.719 421.594,278.470 420.662,278.800 420.163 C 279.560 419.015,283.844 413.424,284.504 412.719 C 284.777 412.428,285.625 411.297,286.388 410.206 C 287.152 409.116,288.023 407.948,288.323 407.612 C 289.217 406.612,295.224 397.894,295.863 396.669 C 296.187 396.047,297.071 394.728,297.826 393.738 C 298.582 392.749,299.200 391.765,299.200 391.552 C 299.200 391.340,299.383 390.949,299.607 390.683 C 300.636 389.462,302.051 387.275,302.638 386.000 C 302.993 385.230,303.894 383.745,304.642 382.699 C 305.389 381.654,306.000 380.727,306.000 380.640 C 306.000 380.553,306.751 379.248,307.668 377.741 C 308.586 376.233,310.029 373.650,310.876 372.000 C 311.723 370.350,312.741 368.460,313.138 367.800 C 314.473 365.585,320.049 354.627,321.179 352.000 C 321.794 350.570,322.790 348.320,323.393 347.000 C 323.996 345.680,324.983 343.520,325.587 342.200 C 327.876 337.194,328.400 336.003,328.400 335.805 C 328.400 335.694,328.929 334.477,329.576 333.101 C 330.781 330.537,331.238 329.358,335.041 319.000 C 336.253 315.700,337.758 311.650,338.385 310.000 C 339.810 306.254,340.499 304.207,341.614 300.400 C 342.097 298.750,343.084 295.600,343.807 293.400 C 344.530 291.200,345.247 288.770,345.400 288.000 C 345.553 287.230,346.090 285.340,346.594 283.800 C 347.097 282.260,347.886 279.560,348.345 277.800 C 349.150 274.717,349.497 273.263,351.830 263.200 C 352.416 260.670,353.224 257.340,353.625 255.800 C 354.300 253.207,355.265 248.213,356.022 243.400 C 356.195 242.300,356.615 240.230,356.954 238.800 C 357.294 237.370,357.578 235.629,357.586 234.932 C 357.594 234.234,357.969 232.110,358.420 230.211 C 358.871 228.313,359.425 225.283,359.651 223.480 C 359.877 221.676,360.215 219.030,360.402 217.600 C 360.589 216.170,360.942 213.380,361.188 211.400 C 361.434 209.420,361.812 207.242,362.028 206.561 C 362.245 205.880,362.586 203.360,362.786 200.961 C 362.986 198.562,363.442 194.080,363.800 191.000 C 364.891 181.617,365.875 163.647,366.198 147.200 C 366.308 141.590,366.565 135.290,366.769 133.200 C 366.973 131.110,367.079 127.330,367.005 124.800 C 366.930 122.270,366.741 114.530,366.583 107.600 C 366.266 93.702,366.248 93.601,364.086 93.598 C 361.666 93.596,355.894 92.526,354.600 91.841 C 353.940 91.491,353.094 91.204,352.719 91.202 C 351.590 91.198,345.503 88.401,343.923 87.160 C 343.111 86.522,342.355 86.000,342.244 86.000 C 340.987 86.000,330.800 76.544,330.800 75.377 C 330.800 75.060,330.637 74.800,330.438 74.800 C 330.032 74.800,327.690 71.646,326.725 69.800 C 326.380 69.140,325.523 67.566,324.820 66.303 C 323.514 63.954,320.800 56.492,320.800 55.250 C 320.800 54.870,320.638 54.389,320.439 54.180 C 319.684 53.385,319.062 37.242,319.600 32.400 L 319.800 30.600 196.963 30.499 C 80.361 30.404,74.094 30.434,73.508 31.099 M309.771 49.044 C 310.168 49.196,310.238 50.932,310.090 56.920 C 309.438 83.222,326.153 104.313,348.871 105.855 C 354.299 106.223,353.767 104.773,354.014 119.885 C 354.445 146.322,353.538 173.628,351.598 192.600 C 351.374 194.800,351.006 198.490,350.781 200.800 C 350.192 206.854,349.628 211.634,348.967 216.200 C 348.648 218.400,348.210 221.460,347.994 223.000 C 346.370 234.588,342.859 253.133,340.383 263.200 C 340.194 263.970,339.855 265.459,339.630 266.509 C 338.167 273.334,332.936 291.563,329.766 300.880 C 328.546 304.466,327.400 307.850,327.219 308.400 C 327.038 308.950,325.893 312.100,324.676 315.400 C 322.639 320.921,322.054 322.418,320.612 325.800 C 320.331 326.460,319.236 329.070,318.179 331.600 C 295.596 385.652,257.795 433.149,215.000 461.244 C 208.208 465.702,197.635 471.600,196.432 471.600 C 195.162 471.600,186.132 466.767,179.400 462.484 C 148.010 442.514,117.748 410.514,96.101 374.400 C 93.356 369.820,89.392 362.810,87.394 359.000 C 86.125 356.580,84.493 353.478,83.767 352.107 C 82.480 349.676,78.074 340.404,76.493 336.800 C 76.059 335.810,75.064 333.560,74.282 331.800 C 68.161 318.018,59.898 293.988,55.577 277.400 C 53.911 271.004,53.588 269.706,51.802 262.200 C 49.270 251.565,46.256 235.897,44.800 225.800 C 43.537 217.044,42.388 208.313,42.010 204.600 C 38.760 172.707,37.814 150.554,38.375 119.484 C 38.636 105.071,38.373 106.016,42.117 106.006 C 55.579 105.971,70.130 96.009,77.184 82.000 C 81.097 74.228,82.141 69.305,82.228 58.200 C 82.266 53.360,82.320 49.269,82.348 49.108 C 82.405 48.790,308.941 48.726,309.771 49.044 M258.600 63.433 C 247.967 65.790,242.672 72.486,242.652 83.600 C 242.625 99.471,254.554 107.196,273.854 103.806 L 277.838 103.106 280.019 104.499 C 281.219 105.265,283.356 106.474,284.768 107.186 L 287.336 108.480 288.064 107.540 C 289.159 106.124,290.861 102.784,290.714 102.341 C 290.642 102.126,289.417 101.376,287.992 100.675 C 285.011 99.209,284.764 98.642,286.172 96.515 C 291.269 88.811,290.612 76.098,284.773 69.464 C 280.070 64.121,268.022 61.345,258.600 63.433 M105.476 63.857 C 105.324 64.009,105.200 73.013,105.200 83.867 L 105.200 103.600 112.004 103.600 L 118.807 103.600 118.704 83.700 L 118.600 63.800 112.176 63.690 C 108.643 63.630,105.628 63.705,105.476 63.857 M135.696 63.932 C 135.300 64.184,135.214 68.432,135.296 83.826 L 135.400 103.400 142.000 103.400 L 148.600 103.400 148.800 95.800 L 149.000 88.200 151.342 88.212 C 154.325 88.227,154.830 88.749,160.146 97.303 L 164.059 103.600 171.630 103.600 C 176.224 103.600,179.200 103.448,179.200 103.214 C 179.200 100.622,169.926 88.205,167.651 87.750 C 165.509 87.322,166.212 85.238,168.508 85.209 C 171.864 85.167,176.000 79.585,176.000 75.098 C 176.000 68.549,173.112 65.677,164.869 64.027 C 162.386 63.529,136.463 63.445,135.696 63.932 M202.500 64.198 C 202.225 64.511,202.000 64.882,202.000 65.024 C 202.000 65.449,194.536 83.473,189.171 96.000 C 187.899 98.970,186.735 101.899,186.584 102.510 L 186.308 103.620 193.025 103.510 L 199.741 103.400 200.504 101.400 C 200.924 100.300,201.519 98.815,201.827 98.100 L 202.387 96.800 210.379 96.800 C 219.518 96.800,218.610 96.405,220.028 100.995 L 220.832 103.600 228.016 103.600 C 231.967 103.600,235.200 103.508,235.200 103.396 C 235.200 103.283,234.857 102.428,234.437 101.496 C 234.017 100.563,232.472 96.920,231.003 93.400 C 229.535 89.880,227.898 85.987,227.367 84.750 C 226.835 83.512,226.400 82.393,226.400 82.262 C 226.400 82.131,225.933 81.002,225.362 79.754 C 224.791 78.506,224.081 76.836,223.785 76.042 C 222.975 73.878,219.033 64.673,218.670 64.100 C 218.181 63.329,203.185 63.420,202.500 64.198 M270.467 71.952 C 274.990 73.914,277.253 81.550,275.409 88.628 C 274.398 92.511,274.188 92.591,270.704 90.406 C 266.804 87.961,265.918 87.915,264.641 90.093 C 263.303 92.376,263.215 92.148,266.017 93.641 C 270.051 95.791,268.010 97.274,263.015 95.821 C 258.350 94.465,256.016 90.322,256.005 83.373 C 255.989 73.946,262.752 68.605,270.467 71.952 M160.689 72.789 C 163.015 74.207,162.903 77.111,160.468 78.533 C 158.779 79.520,150.400 80.030,149.408 79.206 C 148.780 78.686,148.493 72.840,149.067 72.267 C 149.770 71.564,159.389 71.996,160.689 72.789 M211.068 74.500 C 211.269 74.775,211.663 75.720,211.943 76.600 C 212.223 77.480,212.611 78.560,212.803 79.000 C 216.665 87.819,216.697 87.724,210.000 87.517 C 205.263 87.371,205.323 87.575,207.829 80.148 C 210.136 73.313,210.164 73.264,211.068 74.500 M101.600 346.859 C 101.600 351.161,125.934 386.880,137.789 399.980 C 156.120 420.236,175.354 435.755,193.561 444.980 C 196.251 446.343,196.674 446.263,202.000 443.377 C 222.892 432.059,245.723 411.970,264.061 388.770 C 270.397 380.755,286.400 356.895,286.400 355.464 C 286.400 355.375,287.390 353.554,288.600 351.418 C 289.810 349.281,290.800 347.278,290.800 346.967 C 290.800 346.479,277.541 346.400,196.200 346.400 C 125.242 346.400,101.600 346.515,101.600 346.859 " stroke="none" fill="#000000" fill-rule="evenodd"></path><path id="path1" d="M58.843 125.520 C 56.765 129.402,58.676 188.796,61.632 212.200 C 62.077 215.720,62.595 219.860,62.783 221.400 C 64.250 233.379,64.698 235.074,66.482 235.391 C 67.207 235.520,126.199 235.575,197.575 235.513 L 327.349 235.400 327.651 234.200 C 328.035 232.673,329.147 225.511,329.607 221.600 C 329.801 219.950,330.319 215.720,330.759 212.200 C 331.890 203.136,332.738 192.871,333.684 176.800 C 334.398 164.680,334.359 126.315,333.632 125.439 C 332.758 124.386,59.407 124.466,58.843 125.520 " stroke="none" fill="#dc242c" fill-rule="evenodd"></path><path id="path2" d="M319.720 36.400 C 319.720 37.610,319.795 38.105,319.887 37.500 C 319.978 36.895,319.978 35.905,319.887 35.300 C 319.795 34.695,319.720 35.190,319.720 36.400 M82.753 49.498 C 82.728 49.664,82.663 53.760,82.610 58.600 C 82.513 67.496,82.465 67.877,80.602 74.559 C 75.875 91.514,61.025 104.332,44.027 106.129 L 39.454 106.613 39.111 107.806 C 38.597 109.595,38.628 154.598,39.150 163.600 C 40.427 185.630,41.754 200.412,43.800 215.400 C 44.370 219.580,45.001 224.260,45.202 225.800 C 45.809 230.469,49.725 251.799,50.782 256.200 C 50.994 257.080,51.638 259.780,52.215 262.200 C 57.280 283.460,65.768 311.063,70.418 321.400 C 70.616 321.840,71.157 323.190,71.620 324.400 C 72.083 325.610,72.706 327.140,73.005 327.800 C 73.303 328.460,75.015 332.327,76.810 336.393 C 84.978 354.899,95.198 373.307,106.084 389.118 C 112.090 397.841,118.774 406.673,123.249 411.799 C 123.825 412.459,125.697 414.620,127.407 416.600 C 147.006 439.287,175.146 461.852,194.703 470.566 L 196.406 471.324 198.981 470.069 C 219.578 460.026,247.561 437.356,265.203 416.419 C 267.511 413.680,270.047 410.710,270.838 409.819 C 287.115 391.492,308.273 355.433,320.254 325.600 C 321.005 323.730,321.773 321.840,321.960 321.400 C 322.797 319.433,323.358 317.947,325.043 313.233 C 326.032 310.465,327.175 307.300,327.583 306.200 C 327.991 305.100,328.791 302.760,329.361 301.000 C 329.931 299.240,330.956 296.090,331.639 294.000 C 332.323 291.910,333.026 289.660,333.204 289.000 C 333.381 288.340,334.182 285.460,334.983 282.600 C 336.993 275.432,340.620 260.887,341.666 255.800 C 341.893 254.700,342.236 253.080,342.429 252.200 C 343.963 245.200,346.033 233.726,347.155 226.000 C 349.869 207.298,350.745 199.331,352.365 178.600 C 353.842 159.698,354.367 108.229,353.096 106.962 C 352.928 106.795,350.678 106.441,348.096 106.177 C 329.227 104.242,314.501 89.495,310.232 68.257 C 309.527 64.749,309.350 53.468,309.966 51.318 C 310.228 50.407,310.191 49.924,309.837 49.631 C 309.253 49.146,82.828 49.013,82.753 49.498 M274.707 63.339 C 285.170 66.282,289.600 72.438,289.600 84.034 C 289.600 90.185,288.994 92.632,286.488 96.600 L 285.226 98.600 286.113 99.292 C 286.601 99.673,287.945 100.381,289.100 100.866 C 291.633 101.929,291.659 102.181,289.594 105.657 C 287.369 109.403,287.464 109.408,280.400 105.101 L 277.800 103.515 274.177 104.158 C 255.902 107.398,243.485 100.329,242.242 85.978 C 241.209 74.044,247.269 65.545,258.600 63.033 C 262.068 62.265,271.527 62.444,274.707 63.339 M119.200 83.611 L 119.200 103.585 118.300 103.807 C 117.805 103.929,114.610 103.977,111.200 103.914 L 105.000 103.800 104.896 83.826 C 104.836 72.146,104.943 63.758,105.156 63.626 C 105.356 63.502,108.598 63.453,112.360 63.518 L 119.200 63.636 119.200 83.611 M218.837 63.877 C 219.019 64.059,220.184 66.636,221.426 69.604 C 222.667 72.572,224.008 75.720,224.406 76.600 C 224.803 77.480,225.479 79.100,225.909 80.200 C 227.423 84.080,233.320 98.232,234.474 100.758 C 236.000 104.095,236.124 104.037,227.775 103.910 L 220.609 103.800 219.854 101.400 C 218.387 96.730,219.409 97.168,210.265 97.292 L 202.274 97.400 201.348 100.146 C 200.838 101.656,200.215 103.141,199.962 103.446 C 199.321 104.218,186.000 104.264,186.000 103.494 C 186.000 102.751,187.176 99.703,189.896 93.400 C 193.556 84.917,195.391 80.543,198.876 72.007 C 200.625 67.721,202.208 64.031,202.394 63.807 C 202.801 63.316,218.342 63.382,218.837 63.877 M169.378 64.705 C 178.644 68.169,178.615 82.574,169.336 85.181 C 166.409 86.004,166.077 86.617,168.068 87.518 C 170.978 88.834,180.805 102.555,179.659 103.701 C 179.485 103.875,175.851 103.969,171.584 103.909 L 163.825 103.800 160.354 98.200 C 154.639 88.982,153.077 87.442,150.179 88.170 L 149.200 88.415 149.200 95.965 C 149.200 102.480,149.113 103.548,148.567 103.757 C 147.284 104.250,135.719 104.026,135.292 103.500 C 134.857 102.966,134.622 64.611,135.049 63.921 C 135.604 63.022,166.781 63.735,169.378 64.705 M325.386 66.700 C 325.735 67.415,326.106 68.000,326.210 68.000 C 326.608 68.000,326.352 67.363,325.567 66.400 L 324.752 65.400 325.386 66.700 M262.398 71.911 C 258.114 74.018,256.413 77.267,256.404 83.357 C 256.393 91.382,259.854 96.000,265.879 96.000 C 268.742 96.000,268.648 95.257,265.600 93.800 C 262.800 92.462,262.909 92.770,264.300 90.107 C 265.755 87.323,266.530 87.361,271.278 90.451 C 273.932 92.178,274.107 92.092,275.009 88.628 C 277.886 77.583,270.574 67.889,262.398 71.911 M328.400 71.455 C 328.400 72.150,330.581 74.858,330.745 74.366 C 330.840 74.079,330.532 73.587,330.059 73.273 C 329.587 72.959,329.200 72.465,329.200 72.175 C 329.200 71.885,329.020 71.536,328.800 71.400 C 328.580 71.264,328.400 71.289,328.400 71.455 M149.368 72.940 C 149.254 73.237,149.215 74.722,149.280 76.240 L 149.400 79.000 153.800 79.000 C 161.916 79.000,164.997 76.242,160.411 73.082 C 159.106 72.182,149.705 72.062,149.368 72.940 M209.995 74.467 C 209.992 74.540,209.115 77.210,208.046 80.400 C 205.624 87.627,205.474 87.253,210.748 87.113 L 215.000 87.000 214.938 86.000 C 214.798 83.741,210.061 72.689,209.995 74.467 M366.901 111.000 C 366.905 111.880,366.987 112.193,367.083 111.695 C 367.179 111.198,367.175 110.478,367.075 110.095 C 366.975 109.713,366.896 110.120,366.901 111.000 M24.982 128.000 C 24.982 136.690,25.035 140.245,25.100 135.900 C 25.164 131.555,25.164 124.445,25.100 120.100 C 25.035 115.755,24.982 119.310,24.982 128.000 M367.447 129.100 C 367.304 131.905,367.093 135.550,366.977 137.200 C 366.831 139.285,366.889 140.006,367.167 139.565 C 367.577 138.915,368.293 124.000,367.915 124.000 C 367.800 124.000,367.590 126.295,367.447 129.100 M333.632 125.439 C 334.359 126.315,334.398 164.680,333.684 176.800 C 332.738 192.871,331.890 203.136,330.759 212.200 C 330.319 215.720,329.801 219.950,329.607 221.600 C 329.147 225.511,328.035 232.673,327.651 234.200 L 327.349 235.400 197.575 235.513 C 126.199 235.575,67.207 235.520,66.482 235.391 C 64.698 235.074,64.250 233.379,62.783 221.400 C 62.595 219.860,62.077 215.720,61.632 212.200 C 58.676 188.796,56.765 129.402,58.843 125.520 C 59.407 124.466,332.758 124.386,333.632 125.439 M25.755 157.800 C 25.756 160.660,25.820 161.778,25.897 160.283 C 25.974 158.789,25.974 156.449,25.896 155.083 C 25.818 153.718,25.755 154.940,25.755 157.800 M366.128 167.600 C 366.128 169.030,366.201 169.615,366.289 168.900 C 366.378 168.185,366.378 167.015,366.289 166.300 C 366.201 165.585,366.128 166.170,366.128 167.600 M365.600 173.776 C 365.600 175.002,365.828 175.101,366.116 174.000 C 366.231 173.561,366.162 173.100,365.962 172.977 C 365.763 172.854,365.600 173.213,365.600 173.776 M365.198 177.876 C 365.196 179.154,365.102 181.730,364.987 183.600 C 364.852 185.814,364.907 186.716,365.145 186.186 C 365.744 184.853,366.164 176.148,365.645 175.828 C 365.338 175.638,365.199 176.274,365.198 177.876 M364.438 189.000 C 364.449 190.399,364.498 190.483,364.826 189.665 C 365.062 189.075,365.057 188.484,364.812 188.065 C 364.516 187.558,364.427 187.780,364.438 189.000 M364.022 193.400 C 364.004 194.280,363.900 195.450,363.790 196.000 C 363.681 196.550,363.883 196.219,364.241 195.264 C 364.726 193.968,364.785 193.310,364.472 192.664 C 364.105 191.904,364.050 191.993,364.022 193.400 M363.309 199.600 C 363.309 200.590,363.387 200.995,363.482 200.500 C 363.578 200.005,363.578 199.195,363.482 198.700 C 363.387 198.205,363.309 198.610,363.309 199.600 M362.909 204.800 C 362.909 205.790,362.987 206.195,363.082 205.700 C 363.178 205.205,363.178 204.395,363.082 203.900 C 362.987 203.405,362.909 203.810,362.909 204.800 M362.249 207.415 C 362.112 207.773,362.015 208.366,362.034 208.733 C 362.053 209.100,362.227 208.869,362.421 208.220 C 362.798 206.958,362.665 206.333,362.249 207.415 M361.263 215.146 C 360.704 217.014,360.639 218.533,361.159 217.600 C 361.512 216.966,362.109 213.600,361.868 213.600 C 361.790 213.600,361.518 214.296,361.263 215.146 M359.907 225.400 C 359.761 225.840,359.541 226.920,359.417 227.800 L 359.192 229.400 359.810 227.800 C 360.150 226.920,360.370 225.840,360.300 225.400 L 360.171 224.600 359.907 225.400 M358.318 232.800 C 357.640 236.245,357.595 239.122,358.243 237.659 C 358.617 236.812,358.791 235.410,358.715 233.859 C 358.608 231.707,358.559 231.575,358.318 232.800 M356.680 242.000 C 356.563 242.330,356.361 243.500,356.231 244.600 C 356.101 245.700,355.882 247.140,355.743 247.800 C 355.604 248.460,355.602 248.898,355.739 248.773 C 356.123 248.422,357.285 242.448,357.077 241.892 C 356.947 241.544,356.831 241.575,356.680 242.000 M354.800 251.400 C 354.800 251.950,354.869 252.400,354.953 252.400 C 355.038 252.400,355.193 251.950,355.298 251.400 C 355.403 250.850,355.334 250.400,355.145 250.400 C 354.955 250.400,354.800 250.850,354.800 251.400 M353.400 258.400 C 353.248 259.091,353.207 259.741,353.309 259.842 C 353.411 259.944,353.609 259.453,353.750 258.750 C 353.891 258.047,353.931 257.398,353.841 257.308 C 353.750 257.217,353.552 257.709,353.400 258.400 M249.843 258.700 C 250.451 259.501,250.565 262.319,250.024 263.174 C 249.428 264.117,248.477 262.984,248.175 260.972 C 247.764 258.234,248.613 257.079,249.843 258.700 M248.800 260.176 C 248.800 260.959,248.980 261.600,249.200 261.600 C 249.420 261.600,249.600 261.071,249.600 260.424 C 249.600 259.777,249.420 259.136,249.200 259.000 C 248.962 258.853,248.800 259.329,248.800 260.176 M201.800 263.587 C 202.680 264.175,203.985 264.890,204.700 265.176 C 206.224 265.787,206.348 266.610,205.201 268.490 C 204.284 269.996,203.933 299.980,204.814 301.626 C 205.423 302.765,207.644 302.648,209.127 301.400 C 210.879 299.926,210.957 300.007,212.521 304.900 C 214.884 312.295,215.074 313.182,214.389 313.615 C 213.477 314.192,199.065 314.105,198.480 313.520 C 197.966 313.006,197.743 262.390,198.253 261.881 C 198.541 261.592,199.512 262.059,201.800 263.587 M277.119 263.112 C 278.374 263.944,279.985 264.866,280.700 265.161 C 282.198 265.779,282.319 266.511,281.200 268.200 C 280.228 269.668,279.931 300.971,280.880 301.920 C 281.895 302.935,285.032 302.175,286.060 300.665 C 286.446 300.097,287.600 300.675,287.600 301.437 C 287.600 301.801,288.221 303.953,288.979 306.220 C 289.737 308.486,290.412 311.029,290.479 311.870 L 290.600 313.400 282.400 313.400 L 274.200 313.400 274.096 288.000 C 274.039 274.030,274.079 262.375,274.184 262.100 C 274.456 261.388,274.586 261.432,277.119 263.112 M172.529 264.701 C 174.216 267.110,174.293 267.453,173.226 267.792 C 172.203 268.117,161.491 279.045,152.053 289.392 C 147.364 294.534,146.749 294.228,161.408 294.050 C 175.255 293.882,175.387 293.861,175.769 291.823 C 176.133 289.886,178.118 287.995,181.399 286.459 C 184.836 284.851,184.696 284.835,188.241 287.227 C 192.976 290.423,192.822 289.894,192.702 302.600 L 192.600 313.400 154.333 313.600 C 133.287 313.710,115.997 313.890,115.912 314.000 C 115.827 314.110,115.416 315.010,114.998 316.000 C 113.121 320.454,110.040 322.790,105.624 323.105 C 101.914 323.371,101.873 322.896,105.369 320.140 C 110.699 315.939,110.988 311.834,106.571 303.082 L 104.796 299.565 106.038 298.882 C 106.722 298.507,108.274 297.615,109.489 296.900 C 112.139 295.339,112.000 295.354,112.000 296.640 C 112.000 300.467,114.678 302.103,121.308 302.326 C 127.438 302.533,128.708 301.128,126.431 296.660 C 125.722 295.271,125.715 295.132,126.331 294.909 C 126.699 294.776,128.125 293.782,129.499 292.700 C 132.462 290.367,132.355 290.228,132.495 296.600 L 132.600 301.400 159.200 301.400 L 185.800 301.400 186.064 298.800 C 186.504 294.457,185.332 291.219,183.692 292.249 C 183.164 292.581,182.972 293.351,182.883 295.507 C 182.717 299.517,184.484 299.222,161.355 299.104 L 141.000 299.000 140.884 295.710 L 140.768 292.419 144.474 288.310 C 149.740 282.470,170.523 261.953,170.815 262.306 C 170.949 262.468,171.720 263.545,172.529 264.701 M351.600 266.000 C 351.330 267.124,351.189 268.123,351.287 268.220 C 351.384 268.317,351.677 267.470,351.938 266.338 C 352.200 265.206,352.341 264.207,352.252 264.119 C 352.163 264.030,351.870 264.876,351.600 266.000 M268.000 289.004 L 268.000 313.608 248.900 313.504 L 229.800 313.400 229.811 307.400 C 229.830 297.647,232.756 293.451,238.708 294.642 C 240.623 295.025,241.421 292.652,240.269 290.000 C 239.939 289.239,240.013 289.145,243.520 285.889 C 245.125 284.397,246.610 283.283,246.820 283.412 C 247.041 283.549,247.200 287.291,247.200 292.381 C 247.200 301.908,247.121 301.600,249.553 301.600 C 251.572 301.600,251.600 301.439,251.600 289.635 L 251.600 278.631 253.900 276.482 C 257.960 272.688,257.600 271.650,257.600 287.137 C 257.600 302.276,257.532 301.910,260.271 301.466 C 262.428 301.116,262.387 301.439,262.394 284.811 L 262.400 269.422 264.888 266.911 C 266.257 265.530,267.517 264.400,267.688 264.400 C 267.860 264.400,268.000 275.472,268.000 289.004 M257.362 266.792 C 257.299 269.605,255.390 270.568,251.934 269.533 C 250.559 269.121,250.195 269.168,248.834 269.933 C 246.839 271.054,244.304 271.071,242.762 269.973 C 241.057 268.759,241.325 268.452,243.900 268.674 C 245.990 268.854,246.374 268.755,248.112 267.590 L 250.024 266.309 251.885 267.114 C 254.091 268.069,254.513 267.959,255.636 266.142 C 256.733 264.367,257.410 264.622,257.362 266.792 M349.888 273.333 C 349.410 274.549,349.524 275.573,350.039 274.687 C 350.267 274.296,350.391 273.666,350.315 273.287 C 350.188 272.660,350.151 272.664,349.888 273.333 M348.249 279.415 C 348.112 279.773,348.015 280.366,348.034 280.733 C 348.053 281.100,348.227 280.869,348.421 280.220 C 348.798 278.958,348.665 278.333,348.249 279.415 M343.088 296.933 C 342.610 298.149,342.724 299.173,343.239 298.287 C 343.467 297.896,343.591 297.266,343.515 296.887 C 343.388 296.260,343.351 296.264,343.088 296.933 M237.900 299.232 C 236.607 299.985,237.300 302.000,238.851 302.000 C 239.852 302.000,240.810 300.897,240.512 300.088 C 240.045 298.822,239.123 298.520,237.900 299.232 M341.470 302.373 C 340.570 305.292,340.659 305.856,341.639 303.438 C 342.077 302.360,342.369 301.190,342.288 300.838 C 342.207 300.487,341.839 301.178,341.470 302.373 M339.450 308.391 C 338.547 310.647,338.687 310.983,339.637 308.842 C 340.066 307.875,340.345 307.012,340.258 306.925 C 340.171 306.838,339.808 307.498,339.450 308.391 M337.708 313.061 C 337.217 314.319,336.889 315.422,336.980 315.513 C 337.300 315.833,338.846 312.327,338.724 311.556 C 338.643 311.048,338.286 311.576,337.708 313.061 M126.571 318.229 C 128.198 319.855,126.390 323.065,124.436 322.019 C 122.768 321.126,122.412 319.588,123.600 318.400 C 124.561 317.439,125.715 317.372,126.571 318.229 M329.650 334.000 C 327.942 337.556,328.068 338.293,329.819 334.991 C 330.600 333.520,331.162 332.110,331.069 331.858 C 330.975 331.606,330.337 332.570,329.650 334.000 M66.564 343.800 C 66.794 344.790,67.121 345.600,67.291 345.600 C 67.750 345.600,67.669 344.939,67.020 343.387 C 66.230 341.496,66.064 341.646,66.564 343.800 M323.865 347.100 L 323.183 348.600 323.991 347.656 C 324.436 347.136,324.800 346.461,324.800 346.156 C 324.800 345.284,324.600 345.486,323.865 347.100 M291.110 346.827 C 291.375 348.206,280.347 366.714,273.011 377.200 C 252.346 406.739,225.387 431.696,199.816 444.956 C 196.169 446.847,196.232 446.856,190.197 443.570 C 161.474 427.931,132.425 398.929,111.301 364.800 C 106.038 356.297,101.200 347.663,101.200 346.774 C 101.200 345.682,290.899 345.735,291.110 346.827 M320.215 354.968 C 317.176 361.124,316.751 362.078,317.153 361.829 C 317.643 361.526,322.886 350.847,322.732 350.465 C 322.660 350.284,321.527 352.310,320.215 354.968 M72.832 356.651 C 72.814 357.119,73.099 357.749,73.465 358.051 C 74.060 358.542,74.087 358.515,73.720 357.800 C 73.493 357.360,73.208 356.730,73.086 356.400 C 72.933 355.988,72.853 356.067,72.832 356.651 M315.265 364.617 C 314.595 366.088,314.723 366.402,315.447 365.065 C 315.786 364.440,315.988 363.854,315.896 363.763 C 315.805 363.671,315.521 364.056,315.265 364.617 M307.460 378.860 C 306.446 380.569,306.255 381.093,306.840 380.564 C 307.732 379.757,309.372 376.838,309.090 376.557 C 308.999 376.466,308.266 377.503,307.460 378.860 M297.064 395.600 C 296.674 396.260,296.443 396.800,296.550 396.800 C 296.658 396.800,297.130 396.260,297.600 395.600 C 298.070 394.940,298.301 394.400,298.113 394.400 C 297.926 394.400,297.454 394.940,297.064 395.600 M294.928 398.900 C 294.331 399.835,293.474 401.049,293.022 401.597 L 292.200 402.594 293.051 401.879 C 293.875 401.187,296.549 397.200,296.189 397.200 C 296.091 397.200,295.524 397.965,294.928 398.900 M100.400 403.461 C 100.400 404.118,102.137 406.517,102.761 406.723 C 103.070 406.825,102.810 406.208,102.183 405.354 C 100.576 403.161,100.400 402.975,100.400 403.461 M284.521 413.302 C 283.429 414.505,282.251 416.385,282.459 416.593 C 282.552 416.685,283.305 415.848,284.133 414.733 C 285.699 412.626,285.940 411.738,284.521 413.302 M273.795 426.674 C 273.358 427.265,272.579 428.255,272.064 428.874 C 271.550 429.493,271.224 430.000,271.340 430.000 C 271.796 430.000,274.088 427.651,274.605 426.655 C 275.316 425.285,274.814 425.297,273.795 426.674 M266.373 435.275 C 265.398 436.417,263.898 438.131,263.039 439.086 C 262.181 440.041,261.764 440.712,262.112 440.578 C 262.866 440.289,268.400 434.130,268.400 433.580 C 268.400 432.960,268.230 433.102,266.373 435.275 M256.399 445.700 C 255.849 446.195,255.138 446.960,254.818 447.400 C 254.499 447.840,254.994 447.488,255.919 446.619 C 257.455 445.174,257.781 444.799,257.500 444.800 C 257.445 444.801,256.950 445.206,256.399 445.700 M140.800 450.689 C 140.800 451.192,141.943 452.190,142.212 451.921 C 142.318 451.815,142.044 451.402,141.602 451.002 C 141.161 450.603,140.800 450.462,140.800 450.689 M144.022 453.900 C 144.034 454.065,144.574 454.619,145.222 455.130 C 146.584 456.206,146.828 455.629,145.525 454.416 C 144.632 453.584,143.982 453.361,144.022 453.900 M246.575 454.852 C 245.736 455.745,245.630 455.985,246.204 455.689 C 247.207 455.172,248.661 453.600,248.137 453.600 C 247.924 453.600,247.221 454.163,246.575 454.852 M235.131 464.700 C 232.538 466.842,232.208 467.200,232.828 467.200 C 233.147 467.200,233.632 466.840,233.907 466.400 C 234.182 465.960,234.736 465.600,235.139 465.600 C 235.542 465.600,236.077 465.150,236.327 464.600 C 236.903 463.336,236.767 463.347,235.131 464.700 M168.458 473.638 C 168.808 474.167,169.428 474.666,169.835 474.746 C 170.768 474.930,169.954 473.818,168.643 473.116 C 167.849 472.691,167.842 472.710,168.458 473.638 M175.200 478.009 C 175.200 478.238,175.478 478.532,175.817 478.662 C 176.755 479.022,176.866 478.633,175.982 478.081 C 175.487 477.772,175.200 477.746,175.200 478.009 M215.771 478.591 C 215.094 479.103,215.083 479.176,215.676 479.187 C 216.048 479.194,216.471 479.008,216.616 478.773 C 217.052 478.068,216.593 477.970,215.771 478.591 M181.600 482.400 C 181.600 482.620,181.971 482.800,182.424 482.800 C 182.877 482.800,183.136 482.620,183.000 482.400 C 182.864 482.180,182.493 482.000,182.176 482.000 C 181.859 482.000,181.600 482.180,181.600 482.400 M207.438 483.900 C 207.276 484.065,206.571 484.411,205.871 484.670 C 204.649 485.121,204.640 485.140,205.638 485.170 C 206.209 485.186,207.002 484.840,207.400 484.400 C 208.070 483.660,208.103 483.225,207.438 483.900 M196.000 489.600 C 196.000 490.101,196.424 490.101,197.200 489.600 C 197.685 489.286,197.628 489.211,196.900 489.206 C 196.405 489.203,196.000 489.380,196.000 489.600 " stroke="none" fill="#ffffff" fill-rule="evenodd"></path><path id="path3" d="M72.782 31.234 C 72.147 32.421,72.469 32.497,73.319 31.361 C 73.714 30.832,73.855 30.400,73.633 30.400 C 73.410 30.400,73.027 30.775,72.782 31.234 M319.459 33.700 C 319.128 36.454,319.179 46.808,319.528 47.681 C 319.678 48.056,319.800 44.591,319.800 39.981 C 319.800 30.637,319.808 30.792,319.459 33.700 M72.928 35.200 C 72.928 36.630,73.001 37.215,73.089 36.500 C 73.178 35.785,73.178 34.615,73.089 33.900 C 73.001 33.185,72.928 33.770,72.928 35.200 M73.301 39.800 C 73.305 40.680,73.387 40.993,73.483 40.495 C 73.579 39.998,73.575 39.278,73.475 38.895 C 73.375 38.513,73.296 38.920,73.301 39.800 M82.348 49.100 C 82.320 49.265,82.268 53.360,82.232 58.200 C 82.193 63.521,81.975 67.791,81.681 69.000 C 80.802 72.608,80.732 73.002,81.013 72.721 C 81.995 71.739,82.516 66.918,82.563 58.400 L 82.612 49.400 140.706 49.400 C 172.658 49.400,198.800 49.265,198.800 49.100 C 198.800 48.935,172.610 48.800,140.600 48.800 C 108.590 48.800,82.377 48.935,82.348 49.100 M209.705 49.087 C 210.314 49.179,211.214 49.177,211.705 49.082 C 212.197 48.987,211.700 48.911,210.600 48.914 C 209.500 48.917,209.097 48.995,209.705 49.087 M219.252 48.986 C 219.360 49.093,239.679 49.194,264.407 49.210 C 295.779 49.231,309.522 49.370,309.883 49.669 C 310.218 49.947,310.400 49.955,310.400 49.692 C 310.400 49.468,310.127 49.181,309.793 49.053 C 309.063 48.773,218.973 48.706,219.252 48.986 M309.850 51.650 C 308.872 56.539,309.767 67.633,311.666 74.159 C 316.351 90.260,331.798 104.779,345.333 105.802 C 346.470 105.888,346.950 105.873,346.400 105.770 C 324.106 101.570,309.549 82.241,310.062 57.522 C 310.222 49.823,310.221 49.796,309.850 51.650 M320.000 52.910 C 320.000 53.483,320.187 54.068,320.416 54.210 C 320.689 54.379,320.738 54.077,320.560 53.334 C 320.192 51.801,320.000 51.656,320.000 52.910 M320.822 55.138 C 320.788 55.968,322.107 60.253,322.256 59.800 C 322.328 59.580,322.040 58.320,321.615 57.000 C 321.191 55.680,320.833 54.842,320.822 55.138 M323.022 62.400 C 323.285 63.332,324.723 66.218,326.600 69.584 C 327.640 71.449,329.980 74.800,330.243 74.800 C 330.355 74.800,330.313 74.575,330.149 74.300 C 329.628 73.425,328.209 71.408,327.969 71.200 C 327.712 70.978,327.077 69.808,324.494 64.800 C 323.529 62.930,322.867 61.850,323.022 62.400 M258.635 63.058 C 255.424 63.746,251.710 65.372,249.324 67.133 C 247.564 68.433,244.126 72.660,244.514 73.048 C 244.639 73.172,245.021 72.733,245.363 72.072 C 249.163 64.723,263.585 60.650,274.781 63.764 C 275.981 64.098,277.034 64.299,277.122 64.212 C 277.337 63.996,274.398 63.223,271.648 62.773 C 268.357 62.234,261.810 62.377,258.635 63.058 M105.296 63.532 C 104.900 63.784,104.815 68.112,104.896 83.826 L 105.000 103.800 111.800 103.815 L 118.600 103.831 111.900 103.706 L 105.200 103.581 105.200 83.870 C 105.200 69.073,105.320 64.040,105.680 63.680 C 106.228 63.132,106.040 63.060,105.296 63.532 M202.400 63.800 C 202.056 64.215,202.041 64.400,202.351 64.400 C 202.598 64.400,202.800 64.233,202.800 64.028 C 202.800 63.823,203.205 63.578,203.700 63.482 C 204.562 63.316,204.564 63.307,203.749 63.254 C 203.281 63.225,202.674 63.470,202.400 63.800 M118.701 76.700 C 118.757 83.905,118.851 92.950,118.911 96.800 C 118.971 100.650,119.060 94.755,119.110 83.700 C 119.159 72.645,119.065 63.600,118.900 63.600 C 118.735 63.600,118.645 69.495,118.701 76.700 M134.950 64.187 C 134.826 64.510,134.817 65.005,134.931 65.287 C 135.044 65.569,135.151 65.410,135.168 64.933 C 135.186 64.457,135.425 63.976,135.700 63.865 C 136.092 63.707,136.089 63.656,135.687 63.632 C 135.406 63.614,135.074 63.864,134.950 64.187 M67.400 66.000 C 66.843 67.100,66.477 68.000,66.587 68.000 C 66.697 68.000,67.243 67.100,67.800 66.000 C 68.357 64.900,68.723 64.000,68.613 64.000 C 68.503 64.000,67.957 64.900,67.400 66.000 M165.700 64.276 C 166.085 64.376,166.715 64.376,167.100 64.276 C 167.485 64.175,167.170 64.093,166.400 64.093 C 165.630 64.093,165.315 64.175,165.700 64.276 M280.200 65.971 C 283.462 67.789,285.004 69.293,286.974 72.576 C 288.699 75.451,288.887 75.149,287.204 72.207 C 285.719 69.611,282.749 66.793,280.066 65.434 C 276.956 63.857,277.044 64.212,280.200 65.971 M171.415 65.944 C 172.083 66.351,173.218 67.386,173.937 68.242 C 174.656 69.099,175.064 69.424,174.843 68.966 C 174.332 67.902,171.356 65.200,170.699 65.201 C 170.424 65.202,170.747 65.536,171.415 65.944 M200.055 69.055 C 199.365 70.748,198.866 72.199,198.946 72.279 C 199.026 72.359,199.656 71.039,200.345 69.345 C 201.035 67.652,201.534 66.201,201.454 66.121 C 201.374 66.041,200.744 67.361,200.055 69.055 M220.150 67.200 C 220.501 68.499,221.709 71.224,221.865 71.068 C 221.956 70.978,221.570 69.935,221.009 68.752 C 220.447 67.568,220.061 66.870,220.150 67.200 M134.982 83.200 C 134.982 92.110,135.035 95.755,135.100 91.300 C 135.164 86.845,135.164 79.555,135.100 75.100 C 135.035 70.645,134.982 74.290,134.982 83.200 M175.455 70.600 C 175.601 71.040,175.846 72.840,175.999 74.600 L 176.276 77.800 176.320 75.000 C 176.347 73.264,176.141 71.744,175.776 71.000 C 175.453 70.340,175.308 70.160,175.455 70.600 M261.293 72.067 C 260.355 72.523,259.196 73.459,258.718 74.147 L 257.849 75.400 259.239 74.070 C 260.004 73.339,261.343 72.409,262.215 72.003 C 263.087 71.597,263.620 71.259,263.400 71.252 C 263.180 71.245,262.232 71.612,261.293 72.067 M222.028 71.800 C 222.028 72.020,222.286 72.650,222.600 73.200 C 222.914 73.750,223.172 74.020,223.172 73.800 C 223.172 73.580,222.914 72.950,222.600 72.400 C 222.286 71.850,222.028 71.580,222.028 71.800 M149.067 72.267 C 148.590 72.744,148.772 78.612,149.280 79.120 C 149.598 79.438,151.047 79.574,153.580 79.523 L 157.400 79.445 153.400 79.223 L 149.400 79.000 149.400 75.800 L 149.400 72.600 154.000 72.484 C 159.433 72.347,159.928 72.441,161.396 73.892 C 162.357 74.841,162.451 74.872,162.047 74.104 C 161.108 72.317,150.516 70.818,149.067 72.267 M271.523 72.900 C 272.239 73.395,273.178 74.340,273.610 75.000 C 274.041 75.660,274.396 75.954,274.397 75.653 C 274.401 74.949,271.463 72.000,270.758 72.000 C 270.464 72.000,270.808 72.405,271.523 72.900 M209.803 74.395 C 209.663 74.622,209.823 74.689,210.177 74.554 C 210.584 74.397,210.924 74.638,211.172 75.258 C 211.392 75.808,211.560 75.942,211.575 75.580 C 211.621 74.453,210.309 73.576,209.803 74.395 M79.428 76.870 C 75.046 89.289,64.198 100.284,52.673 103.989 C 51.833 104.259,51.241 104.574,51.356 104.689 C 52.055 105.388,61.014 100.850,64.664 97.948 C 71.504 92.509,81.333 78.200,80.319 75.158 C 80.243 74.928,79.842 75.698,79.428 76.870 M330.800 75.437 C 330.800 75.867,332.707 78.000,333.091 78.000 C 333.233 78.000,332.821 77.416,332.175 76.702 C 331.529 75.988,330.955 75.328,330.900 75.235 C 330.845 75.143,330.800 75.234,330.800 75.437 M224.000 76.551 C 224.000 77.018,225.277 79.657,225.429 79.505 C 225.638 79.295,224.488 76.400,224.195 76.400 C 224.088 76.400,224.000 76.468,224.000 76.551 M161.200 77.551 C 161.200 77.906,159.678 78.606,158.200 78.931 C 157.557 79.073,157.596 79.116,158.400 79.152 C 158.950 79.177,159.985 78.840,160.700 78.404 C 162.022 77.598,162.320 77.200,161.600 77.200 C 161.380 77.200,161.200 77.358,161.200 77.551 M256.629 78.229 C 256.481 78.815,256.438 79.372,256.532 79.466 C 256.627 79.560,256.824 79.158,256.971 78.571 C 257.119 77.985,257.162 77.428,257.068 77.334 C 256.973 77.240,256.776 77.642,256.629 78.229 M275.027 78.200 C 275.953 82.823,275.524 88.775,274.092 91.200 C 273.548 92.119,273.553 92.151,274.150 91.586 C 275.815 90.011,276.560 82.316,275.388 78.800 C 275.057 77.810,274.895 77.540,275.027 78.200 M195.867 79.267 C 195.505 80.188,195.274 81.007,195.354 81.088 C 195.434 81.168,195.800 80.483,196.167 79.567 C 196.533 78.650,196.764 77.831,196.679 77.746 C 196.594 77.661,196.229 78.345,195.867 79.267 M289.301 79.400 C 289.305 80.280,289.387 80.593,289.483 80.095 C 289.579 79.598,289.575 78.878,289.475 78.495 C 289.375 78.113,289.296 78.520,289.301 79.400 M242.200 81.600 C 242.042 83.385,241.999 84.932,242.103 85.037 C 242.208 85.142,242.422 83.765,242.578 81.978 C 242.734 80.190,242.777 78.644,242.674 78.541 C 242.571 78.438,242.358 79.815,242.200 81.600 M212.943 80.239 C 213.252 81.113,213.906 82.764,214.398 83.906 C 215.744 87.036,215.557 87.200,210.646 87.200 C 208.191 87.200,206.383 87.031,206.263 86.790 C 206.151 86.565,206.106 86.610,206.162 86.890 C 206.272 87.435,212.968 87.843,214.700 87.410 C 215.900 87.110,215.835 86.412,214.240 82.480 C 212.818 78.973,211.995 77.551,212.943 80.239 M56.975 80.500 L 55.800 81.800 57.100 80.625 C 58.312 79.530,58.584 79.200,58.275 79.200 C 58.206 79.200,57.621 79.785,56.975 80.500 M173.000 82.137 C 171.900 83.272,170.640 84.428,170.200 84.706 C 169.760 84.984,169.949 84.953,170.621 84.636 C 171.705 84.126,175.200 80.747,175.200 80.209 C 175.200 79.881,175.117 79.954,173.000 82.137 M256.142 83.400 C 256.141 85.380,256.208 86.240,256.292 85.312 C 256.376 84.384,256.377 82.764,256.295 81.712 C 256.212 80.660,256.143 81.420,256.142 83.400 M338.000 83.000 C 338.746 83.770,339.447 84.400,339.557 84.400 C 339.667 84.400,339.146 83.770,338.400 83.000 C 337.654 82.230,336.953 81.600,336.843 81.600 C 336.733 81.600,337.254 82.230,338.000 83.000 M226.423 82.126 C 226.389 82.614,228.085 86.448,228.259 86.274 C 228.342 86.192,227.968 85.151,227.428 83.962 C 226.888 82.773,226.436 81.947,226.423 82.126 M193.653 84.453 C 193.180 85.593,192.858 86.592,192.939 86.672 C 193.020 86.753,193.473 85.886,193.947 84.747 C 194.420 83.607,194.742 82.608,194.661 82.528 C 194.580 82.447,194.127 83.314,193.653 84.453 M206.444 84.044 C 206.198 84.751,206.066 85.400,206.152 85.485 C 206.238 85.571,206.509 85.062,206.756 84.356 C 207.002 83.649,207.134 83.000,207.048 82.915 C 206.962 82.829,206.691 83.338,206.444 84.044 M166.842 85.954 C 165.702 86.831,165.944 87.409,167.589 87.738 C 169.508 88.122,172.028 90.809,174.745 95.370 C 176.968 99.102,178.460 101.168,177.151 98.700 C 173.934 92.639,170.537 88.513,167.838 87.388 L 166.276 86.737 167.438 85.971 C 168.077 85.550,168.420 85.208,168.200 85.212 C 167.980 85.215,167.369 85.549,166.842 85.954 M242.509 87.600 C 242.509 88.590,242.587 88.995,242.682 88.500 C 242.778 88.005,242.778 87.195,242.682 86.700 C 242.587 86.205,242.509 86.610,242.509 87.600 M228.400 86.959 C 228.400 87.470,231.703 95.230,231.856 95.078 C 231.992 94.942,228.891 87.204,228.552 86.833 C 228.469 86.742,228.400 86.798,228.400 86.959 M256.656 88.400 C 256.931 89.965,257.491 91.600,257.751 91.600 C 257.915 91.600,256.989 88.221,256.599 87.400 C 256.495 87.180,256.520 87.630,256.656 88.400 M289.301 88.600 C 289.305 89.480,289.387 89.793,289.483 89.295 C 289.579 88.798,289.575 88.078,289.475 87.695 C 289.375 87.313,289.296 87.720,289.301 88.600 M148.991 88.500 C 148.889 88.775,148.760 92.240,148.703 96.200 L 148.600 103.400 142.202 103.511 C 136.538 103.609,135.747 103.543,135.302 102.934 C 135.026 102.556,134.800 102.425,134.800 102.644 C 134.800 103.788,135.902 104.000,141.847 104.000 C 150.025 104.000,149.200 104.899,149.200 95.991 C 149.200 90.346,149.325 88.416,149.700 88.265 C 150.092 88.107,150.089 88.056,149.687 88.032 C 149.406 88.014,149.092 88.225,148.991 88.500 M264.853 89.100 L 264.378 90.200 265.134 89.243 C 265.742 88.473,266.116 88.338,267.045 88.555 C 267.892 88.752,268.040 88.716,267.600 88.418 C 266.487 87.665,265.351 87.947,264.853 89.100 M154.161 89.300 C 154.714 89.795,155.489 90.568,155.883 91.019 C 156.278 91.469,156.429 91.559,156.220 91.219 C 155.577 90.171,153.870 88.400,153.503 88.400 C 153.312 88.400,153.608 88.805,154.161 89.300 M268.800 89.220 C 270.187 90.161,270.978 90.435,270.000 89.636 C 269.450 89.186,268.820 88.817,268.600 88.815 C 268.380 88.813,268.470 88.996,268.800 89.220 M189.087 95.322 C 187.828 98.225,186.802 100.780,186.809 101.000 C 186.816 101.220,187.912 98.910,189.244 95.867 C 190.576 92.823,191.601 90.268,191.522 90.189 C 191.443 90.109,190.347 92.419,189.087 95.322 M287.935 92.993 C 287.377 94.412,287.062 95.485,287.235 95.379 C 287.605 95.150,289.292 90.759,289.088 90.555 C 289.011 90.478,288.492 91.575,287.935 92.993 M263.338 91.817 C 263.208 92.157,263.168 92.495,263.251 92.569 C 263.653 92.932,267.600 94.787,267.600 94.613 C 267.600 94.503,266.685 93.950,265.566 93.383 C 264.180 92.680,263.603 92.169,263.754 91.776 C 263.875 91.459,263.885 91.200,263.775 91.200 C 263.665 91.200,263.468 91.478,263.338 91.817 M32.200 92.400 L 31.400 92.744 32.200 92.725 C 32.640 92.714,33.540 92.568,34.200 92.400 L 35.400 92.095 34.200 92.075 C 33.540 92.065,32.640 92.211,32.200 92.400 M258.012 92.225 C 257.989 93.025,261.225 95.600,262.252 95.600 C 262.420 95.600,261.729 95.075,260.717 94.433 C 259.705 93.791,258.685 92.936,258.451 92.533 C 258.216 92.130,258.019 91.991,258.012 92.225 M355.800 92.381 C 356.568 92.729,358.710 92.956,358.367 92.653 C 358.275 92.572,357.480 92.396,356.600 92.262 C 355.485 92.093,355.242 92.129,355.800 92.381 M157.049 92.900 C 159.074 96.322,161.696 100.400,161.870 100.400 C 161.992 100.400,161.835 99.995,161.520 99.500 C 161.205 99.005,160.086 97.205,159.032 95.500 C 157.979 93.795,157.035 92.400,156.935 92.400 C 156.835 92.400,156.886 92.625,157.049 92.900 M29.105 93.083 C 29.602 93.179,30.322 93.175,30.705 93.075 C 31.087 92.975,30.680 92.896,29.800 92.901 C 28.920 92.905,28.607 92.987,29.105 93.083 M360.400 93.199 C 361.390 93.387,362.956 93.554,363.880 93.570 C 365.036 93.591,365.688 93.818,365.968 94.300 C 366.340 94.939,366.377 94.941,366.388 94.327 C 366.403 93.484,365.787 93.313,361.800 93.060 C 359.336 92.904,359.014 92.936,360.400 93.199 M25.680 93.680 C 25.365 93.995,25.226 95.403,25.277 97.780 L 25.353 101.400 25.577 97.603 L 25.800 93.805 27.000 93.550 C 28.113 93.313,28.126 93.291,27.180 93.247 C 26.619 93.221,25.944 93.416,25.680 93.680 M268.000 95.311 C 268.000 95.793,267.519 95.994,266.100 96.106 L 264.200 96.256 266.113 96.328 C 267.928 96.396,269.013 95.680,268.249 94.916 C 268.112 94.779,268.000 94.957,268.000 95.311 M366.573 104.600 C 366.573 109.880,366.630 111.985,366.699 109.277 C 366.768 106.569,366.768 102.249,366.699 99.677 C 366.629 97.105,366.572 99.320,366.573 104.600 M246.477 97.200 C 247.887 99.007,251.452 101.996,252.200 101.996 C 252.420 101.996,251.790 101.466,250.800 100.817 C 249.810 100.168,248.117 98.684,247.037 97.518 C 245.240 95.579,245.193 95.552,246.477 97.200 M285.814 97.035 C 285.441 97.604,285.205 98.138,285.289 98.222 C 285.373 98.307,285.758 97.841,286.144 97.188 C 287.006 95.728,286.748 95.609,285.814 97.035 M202.261 97.100 C 202.159 97.265,205.678 97.348,210.082 97.284 C 217.377 97.178,218.139 97.231,218.666 97.884 C 219.195 98.540,219.207 98.524,218.808 97.700 C 218.364 96.784,202.807 96.220,202.261 97.100 M219.206 99.433 C 219.209 99.855,219.395 100.470,219.618 100.800 C 219.915 101.238,219.952 101.076,219.756 100.200 C 219.427 98.729,219.198 98.410,219.206 99.433 M285.391 99.186 C 285.682 99.657,288.802 101.332,289.007 101.127 C 289.078 101.056,288.234 100.494,287.132 99.879 C 286.030 99.264,285.247 98.952,285.391 99.186 M233.614 99.425 C 233.606 99.659,233.960 100.595,234.400 101.506 C 234.840 102.416,235.200 103.260,235.200 103.381 C 235.200 103.501,231.975 103.600,228.033 103.600 L 220.867 103.600 220.465 102.500 C 220.244 101.895,220.049 101.637,220.032 101.926 C 219.915 103.871,220.408 104.000,227.990 104.000 C 236.072 104.000,235.984 104.038,234.622 101.126 C 234.075 99.956,233.622 99.191,233.614 99.425 M178.360 101.423 C 178.822 102.205,179.200 103.015,179.200 103.223 C 179.200 103.446,176.105 103.600,171.633 103.600 L 164.065 103.600 163.200 102.200 C 162.724 101.430,162.249 100.800,162.144 100.800 C 161.921 100.800,162.232 101.368,163.293 102.900 L 164.054 104.000 171.804 104.000 C 176.066 104.000,179.643 103.854,179.753 103.676 C 179.959 103.343,178.126 100.000,177.738 100.000 C 177.619 100.000,177.899 100.640,178.360 101.423 M200.295 101.996 L 199.664 103.600 192.989 103.600 L 186.313 103.600 186.569 102.500 C 186.758 101.684,186.720 101.555,186.418 102.000 C 185.129 103.906,185.538 104.026,192.900 103.909 L 199.800 103.800 200.544 102.277 C 200.953 101.440,201.206 100.673,201.106 100.573 C 201.006 100.473,200.641 101.113,200.295 101.996 M290.216 101.762 C 290.973 102.316,290.973 102.346,290.203 103.862 C 289.040 106.150,289.030 106.392,290.174 104.600 C 291.349 102.761,291.470 101.789,290.567 101.443 C 289.530 101.045,289.398 101.164,290.216 101.762 M253.026 102.340 C 253.595 102.839,257.150 104.085,257.574 103.933 C 257.779 103.860,256.755 103.398,255.299 102.906 C 253.843 102.414,252.820 102.159,253.026 102.340 M24.914 104.200 C 24.917 105.300,24.995 105.703,25.087 105.095 C 25.179 104.486,25.177 103.586,25.082 103.095 C 24.987 102.603,24.911 103.100,24.914 104.200 M272.800 104.000 C 268.438 104.903,269.428 105.001,274.235 104.143 C 277.824 103.501,277.944 103.505,279.058 104.286 C 280.409 105.233,282.000 106.092,282.000 105.874 C 282.000 105.433,277.822 103.207,277.073 103.248 C 276.593 103.275,274.670 103.613,272.800 104.000 M259.800 104.423 C 261.826 104.842,263.463 104.823,261.800 104.400 C 261.140 104.232,260.060 104.094,259.400 104.093 C 258.391 104.092,258.455 104.145,259.800 104.423 M264.691 104.689 C 265.401 104.777,266.661 104.779,267.491 104.692 C 268.321 104.605,267.740 104.533,266.200 104.531 C 264.660 104.529,263.981 104.600,264.691 104.689 M47.200 105.417 C 45.990 105.695,45.450 105.937,46.000 105.954 C 46.550 105.971,47.900 105.734,49.000 105.428 C 51.481 104.738,50.186 104.730,47.200 105.417 M39.300 106.265 C 39.025 106.376,38.818 106.947,38.840 107.533 L 38.880 108.600 39.156 107.600 C 39.400 106.714,39.704 106.573,41.816 106.367 L 44.200 106.134 42.000 106.099 C 40.790 106.079,39.575 106.154,39.300 106.265 M282.400 106.188 C 282.400 106.383,286.992 108.800,287.361 108.800 C 287.463 108.800,287.933 108.215,288.406 107.500 L 289.266 106.200 288.290 107.335 L 287.315 108.469 284.857 107.229 C 283.506 106.547,282.400 106.078,282.400 106.188 M350.267 106.361 C 353.590 106.683,353.372 105.907,353.624 118.333 L 353.849 129.400 353.824 118.085 C 353.797 105.186,354.036 105.979,350.200 106.067 L 347.800 106.122 350.267 106.361 M24.934 109.600 C 24.934 111.250,25.005 111.925,25.091 111.100 C 25.178 110.275,25.178 108.925,25.091 108.100 C 25.005 107.275,24.934 107.950,24.934 109.600 M38.573 118.600 C 38.573 124.100,38.630 126.405,38.699 123.723 C 38.768 121.041,38.768 116.541,38.699 113.723 C 38.630 110.905,38.574 113.100,38.573 118.600 M25.314 114.600 C 25.317 115.700,25.395 116.103,25.487 115.495 C 25.579 114.886,25.577 113.986,25.482 113.495 C 25.387 113.003,25.311 113.500,25.314 114.600 M366.937 117.400 C 366.939 119.160,367.009 119.830,367.093 118.889 C 367.178 117.949,367.177 116.509,367.091 115.689 C 367.005 114.870,366.936 115.640,366.937 117.400 M367.176 122.200 C 367.102 123.080,367.012 125.510,366.975 127.600 C 366.939 129.690,366.819 135.270,366.709 140.000 C 366.513 148.445,366.515 148.474,366.823 141.600 C 366.996 137.750,367.261 131.900,367.412 128.600 C 367.671 122.973,367.499 118.326,367.176 122.200 M38.114 131.000 C 38.117 132.100,38.195 132.503,38.287 131.895 C 38.379 131.286,38.377 130.386,38.282 129.895 C 38.187 129.403,38.111 129.900,38.114 131.000 M25.365 136.800 C 25.365 140.650,25.425 142.225,25.498 140.300 C 25.571 138.375,25.571 135.225,25.498 133.300 C 25.425 131.375,25.365 132.950,25.365 136.800 M354.142 133.800 C 354.141 135.780,354.208 136.640,354.292 135.712 C 354.376 134.784,354.377 133.164,354.295 132.112 C 354.212 131.060,354.143 131.820,354.142 133.800 M38.128 137.200 C 38.128 138.630,38.201 139.215,38.289 138.500 C 38.378 137.785,38.378 136.615,38.289 135.900 C 38.201 135.185,38.128 135.770,38.128 137.200 M38.471 149.600 C 38.476 154.770,38.603 160.530,38.755 162.400 C 38.906 164.270,38.964 160.220,38.883 153.400 C 38.802 146.580,38.675 140.820,38.600 140.600 C 38.525 140.380,38.467 144.430,38.471 149.600 M353.692 149.238 C 353.642 154.209,353.520 160.239,353.422 162.638 L 353.245 167.000 353.626 162.800 C 353.836 160.490,353.957 154.460,353.896 149.400 L 353.785 140.200 353.692 149.238 M25.901 153.800 C 26.012 158.860,26.215 163.213,26.352 163.474 C 26.662 164.066,26.463 155.334,26.026 149.200 C 25.787 145.850,25.753 147.101,25.901 153.800 M366.131 152.200 C 366.133 153.740,366.205 154.321,366.292 153.491 C 366.379 152.661,366.377 151.401,366.289 150.691 C 366.200 149.981,366.129 150.660,366.131 152.200 M366.041 158.133 C 365.798 159.526,365.628 162.991,365.662 165.833 L 365.725 171.000 366.010 165.147 C 366.167 161.928,366.420 158.463,366.572 157.447 C 366.990 154.659,366.546 155.232,366.041 158.133 M26.957 170.000 C 26.957 172.970,27.020 174.185,27.097 172.700 C 27.174 171.215,27.174 168.785,27.097 167.300 C 27.020 165.815,26.957 167.030,26.957 170.000 M39.351 170.800 C 39.351 173.330,39.416 174.365,39.496 173.100 C 39.575 171.835,39.575 169.765,39.496 168.500 C 39.416 167.235,39.351 168.270,39.351 170.800 M352.686 173.000 C 352.538 176.300,352.240 180.980,352.025 183.400 C 351.218 192.474,351.103 194.195,351.317 193.998 C 351.880 193.481,353.525 169.662,353.127 167.800 C 353.033 167.360,352.834 169.700,352.686 173.000 M365.071 174.002 C 364.926 175.211,364.831 177.640,364.861 179.400 C 364.910 182.287,364.948 182.111,365.255 177.600 C 365.614 172.305,365.513 170.320,365.071 174.002 M39.711 177.600 C 39.704 178.810,39.829 181.060,39.987 182.600 L 40.274 185.400 40.290 183.000 C 40.299 181.680,40.175 179.430,40.014 178.000 L 39.722 175.400 39.711 177.600 M27.309 177.600 C 27.309 178.590,27.387 178.995,27.482 178.500 C 27.578 178.005,27.578 177.195,27.482 176.700 C 27.387 176.205,27.309 176.610,27.309 177.600 M27.675 182.600 C 27.664 184.360,27.796 186.159,27.968 186.598 C 28.139 187.036,28.205 185.866,28.115 183.998 C 27.892 179.361,27.697 178.741,27.675 182.600 M364.439 184.800 C 364.394 185.350,364.096 188.140,363.778 191.000 C 363.459 193.860,363.018 198.304,362.798 200.876 C 362.578 203.448,362.219 206.025,361.999 206.602 C 361.780 207.180,361.614 208.135,361.632 208.726 C 361.649 209.317,361.717 209.620,361.783 209.400 C 362.583 206.730,362.862 205.143,363.192 201.400 C 363.404 198.980,363.860 194.480,364.203 191.400 C 364.547 188.320,364.759 185.350,364.674 184.800 L 364.520 183.800 364.439 184.800 M40.504 187.800 C 40.495 188.900,40.621 190.880,40.785 192.200 C 41.054 194.369,41.084 194.427,41.094 192.800 C 41.101 191.810,40.975 189.830,40.814 188.400 C 40.537 185.934,40.521 185.903,40.504 187.800 M350.928 196.800 C 350.928 198.230,351.001 198.815,351.089 198.100 C 351.178 197.385,351.178 196.215,351.089 195.500 C 351.001 194.785,350.928 195.370,350.928 196.800 M41.254 196.284 C 41.224 197.210,41.369 199.280,41.576 200.884 C 41.782 202.488,42.153 205.600,42.400 207.800 C 42.860 211.899,43.686 218.181,44.372 222.800 C 44.584 224.230,44.871 226.271,45.009 227.337 C 45.147 228.402,45.332 229.202,45.419 229.114 C 45.599 228.934,45.292 226.332,43.800 215.400 C 43.230 211.220,42.580 206.090,42.357 204.000 C 41.445 195.464,41.311 194.525,41.254 196.284 M350.228 202.300 C 349.947 205.516,349.344 210.619,348.737 214.915 C 348.495 216.629,348.384 218.117,348.490 218.223 C 348.595 218.329,348.900 216.747,349.168 214.708 C 349.435 212.668,349.811 209.830,350.004 208.400 C 350.491 204.785,350.871 199.600,350.649 199.600 C 350.547 199.600,350.357 200.815,350.228 202.300 M361.129 212.000 C 360.990 213.210,360.687 215.723,360.456 217.585 C 360.226 219.447,360.105 221.039,360.189 221.122 C 360.272 221.205,360.448 220.402,360.581 219.337 C 360.714 218.271,361.012 216.500,361.245 215.400 C 361.477 214.300,361.603 212.590,361.525 211.600 L 361.383 209.800 361.129 212.000 M31.082 214.021 C 31.208 214.999,31.375 215.875,31.455 215.967 C 31.781 216.342,31.560 213.355,31.221 212.821 C 30.984 212.446,30.935 212.870,31.082 214.021 M32.072 219.200 C 32.053 219.970,32.292 221.770,32.603 223.200 L 33.169 225.800 32.925 223.600 C 32.452 219.350,32.112 217.594,32.072 219.200 M348.032 219.754 C 348.014 220.389,347.814 222.009,347.586 223.354 C 345.591 235.141,344.407 242.940,344.586 243.119 C 344.704 243.237,344.800 243.204,344.800 243.046 C 344.800 242.888,345.408 239.123,346.151 234.679 C 348.082 223.130,348.539 219.804,348.286 219.164 C 348.163 218.854,348.049 219.119,348.032 219.754 M359.666 223.200 C 359.626 224.190,359.144 226.977,358.596 229.393 C 358.048 231.809,357.594 234.329,357.586 234.993 C 357.578 235.657,357.295 237.370,356.957 238.800 C 356.619 240.230,356.191 242.390,356.008 243.600 C 355.824 244.810,355.459 246.757,355.198 247.928 C 354.936 249.098,354.808 250.141,354.913 250.247 C 355.161 250.494,356.398 245.026,356.406 243.651 C 356.409 243.073,356.672 241.853,356.990 240.941 C 357.308 240.029,357.748 237.689,357.968 235.741 C 358.189 233.793,358.742 230.490,359.199 228.400 C 359.655 226.310,359.964 223.880,359.884 223.000 L 359.740 221.400 359.666 223.200 M45.642 230.200 C 45.575 231.782,48.800 249.333,49.103 249.031 C 49.210 248.924,48.827 246.353,48.252 243.318 C 47.676 240.283,46.861 235.910,46.441 233.600 C 46.020 231.290,45.660 229.760,45.642 230.200 M35.274 239.651 C 35.217 241.380,35.362 242.029,35.900 242.451 C 36.513 242.932,36.541 242.924,36.124 242.388 C 35.862 242.051,35.580 240.791,35.498 239.588 L 35.348 237.400 35.274 239.651 M343.244 248.067 C 342.731 250.560,342.152 253.410,341.958 254.400 C 341.764 255.390,341.442 256.920,341.243 257.800 C 340.425 261.424,340.298 262.188,340.551 261.958 C 340.698 261.825,341.085 260.475,341.411 258.958 C 343.370 249.856,344.442 244.326,344.319 243.956 C 344.241 243.724,343.758 245.574,343.244 248.067 M49.251 250.200 C 49.242 250.640,49.481 251.990,49.783 253.200 C 50.085 254.410,50.340 255.040,50.349 254.600 C 50.358 254.160,50.119 252.810,49.817 251.600 C 49.515 250.390,49.260 249.760,49.251 250.200 M353.445 256.481 C 352.809 259.186,351.970 262.660,351.579 264.200 C 350.764 267.409,350.238 270.293,350.522 270.000 C 350.628 269.890,351.281 267.460,351.973 264.600 C 352.665 261.740,353.595 257.996,354.040 256.280 C 354.486 254.563,354.794 252.800,354.725 252.360 C 354.656 251.921,354.080 253.775,353.445 256.481 M50.639 256.800 C 51.012 259.290,55.120 276.046,55.436 276.367 C 55.757 276.692,55.586 275.820,54.430 271.238 C 53.786 268.687,52.790 264.620,52.216 262.200 C 50.914 256.714,50.323 254.689,50.639 256.800 M248.143 258.605 C 247.772 259.571,248.382 262.687,249.050 263.242 C 249.889 263.938,250.390 263.095,250.381 261.000 C 250.372 258.670,248.774 256.961,248.143 258.605 M249.600 260.424 C 249.600 261.071,249.420 261.600,249.200 261.600 C 248.980 261.600,248.800 260.959,248.800 260.176 C 248.800 259.329,248.962 258.853,249.200 259.000 C 249.420 259.136,249.600 259.777,249.600 260.424 M198.253 261.881 C 197.743 262.390,197.966 313.006,198.480 313.520 C 199.065 314.105,213.477 314.192,214.389 313.615 C 215.074 313.182,214.884 312.295,212.521 304.900 C 210.957 300.007,210.879 299.926,209.127 301.400 C 207.644 302.648,205.423 302.765,204.814 301.626 C 203.933 299.980,204.284 269.996,205.201 268.490 C 206.348 266.610,206.224 265.787,204.700 265.176 C 203.985 264.890,202.680 264.175,201.800 263.587 C 199.512 262.059,198.541 261.592,198.253 261.881 M274.184 262.100 C 274.079 262.375,274.039 274.030,274.096 288.000 L 274.200 313.400 282.400 313.400 L 290.600 313.400 290.479 311.870 C 290.412 311.029,289.737 308.486,288.979 306.220 C 288.221 303.953,287.600 301.801,287.600 301.437 C 287.600 300.675,286.446 300.097,286.060 300.665 C 285.032 302.175,281.895 302.935,280.880 301.920 C 279.931 300.971,280.228 269.668,281.200 268.200 C 282.319 266.511,282.198 265.779,280.700 265.161 C 279.985 264.866,278.374 263.944,277.119 263.112 C 274.586 261.432,274.456 261.388,274.184 262.100 M159.376 273.106 C 153.218 279.208,146.513 286.049,144.474 288.310 L 140.768 292.419 140.884 295.710 L 141.000 299.000 161.355 299.104 C 184.484 299.222,182.717 299.517,182.883 295.507 C 182.972 293.351,183.164 292.581,183.692 292.249 C 185.332 291.219,186.504 294.457,186.064 298.800 L 185.800 301.400 159.200 301.400 L 132.600 301.400 132.495 296.600 C 132.355 290.228,132.462 290.367,129.499 292.700 C 128.125 293.782,126.699 294.776,126.331 294.909 C 125.715 295.132,125.722 295.271,126.431 296.660 C 128.708 301.128,127.438 302.533,121.308 302.326 C 114.678 302.103,112.000 300.467,112.000 296.640 C 112.000 295.354,112.139 295.339,109.489 296.900 C 108.274 297.615,106.722 298.507,106.038 298.882 L 104.796 299.565 106.571 303.082 C 110.988 311.834,110.699 315.939,105.369 320.140 C 101.873 322.896,101.914 323.371,105.624 323.105 C 110.040 322.790,113.121 320.454,114.998 316.000 C 115.416 315.010,115.827 314.110,115.912 314.000 C 115.997 313.890,133.287 313.710,154.333 313.600 L 192.600 313.400 192.702 302.600 C 192.822 289.894,192.976 290.423,188.241 287.227 C 184.696 284.835,184.836 284.851,181.399 286.459 C 178.118 287.995,176.133 289.886,175.769 291.823 C 175.387 293.861,175.255 293.882,161.408 294.050 C 146.749 294.228,147.364 294.534,152.053 289.392 C 161.491 279.045,172.203 268.117,173.226 267.792 C 174.339 267.438,173.521 265.577,170.815 262.306 C 170.681 262.144,165.533 267.004,159.376 273.106 M339.620 264.637 C 339.325 265.937,338.737 268.312,338.313 269.915 C 337.890 271.518,337.615 273.046,337.703 273.310 C 337.791 273.574,338.263 272.083,338.752 269.995 C 339.241 267.908,339.833 265.546,340.069 264.746 C 340.305 263.947,340.421 263.063,340.328 262.783 C 340.234 262.503,339.916 263.337,339.620 264.637 M264.888 266.911 L 262.400 269.422 262.394 284.811 C 262.387 301.439,262.428 301.116,260.271 301.466 C 257.532 301.910,257.600 302.276,257.600 287.137 C 257.600 271.650,257.960 272.688,253.900 276.482 L 251.600 278.631 251.600 289.635 C 251.600 301.439,251.572 301.600,249.553 301.600 C 247.121 301.600,247.200 301.908,247.200 292.381 C 247.200 287.291,247.041 283.549,246.820 283.412 C 246.610 283.283,245.125 284.397,243.520 285.889 C 240.013 289.145,239.939 289.239,240.269 290.000 C 241.421 292.652,240.623 295.025,238.708 294.642 C 232.756 293.451,229.830 297.647,229.811 307.400 L 229.800 313.400 248.900 313.504 L 268.000 313.608 268.000 289.004 C 268.000 275.472,267.860 264.400,267.688 264.400 C 267.517 264.400,266.257 265.530,264.888 266.911 M255.636 266.142 C 254.513 267.959,254.091 268.069,251.885 267.114 L 250.024 266.309 248.112 267.590 C 246.374 268.755,245.990 268.854,243.900 268.674 C 241.325 268.452,241.057 268.759,242.762 269.973 C 244.304 271.071,246.839 271.054,248.834 269.933 C 250.195 269.168,250.559 269.121,251.934 269.533 C 255.390 270.568,257.299 269.605,257.362 266.792 C 257.410 264.622,256.733 264.367,255.636 266.142 M41.200 266.910 C 41.200 267.483,41.387 268.068,41.616 268.210 C 41.889 268.379,41.938 268.077,41.760 267.334 C 41.392 265.801,41.200 265.656,41.200 266.910 M349.695 272.307 C 348.942 275.461,348.692 277.014,348.983 276.737 C 349.313 276.423,350.516 270.783,350.299 270.566 C 350.216 270.482,349.944 271.266,349.695 272.307 M42.800 272.776 C 42.800 273.423,42.942 274.041,43.116 274.148 C 43.290 274.256,43.361 273.727,43.273 272.972 C 43.076 271.291,42.800 271.177,42.800 272.776 M335.640 280.240 C 334.704 283.667,334.042 286.576,334.169 286.703 C 334.296 286.829,334.400 286.802,334.400 286.642 C 334.400 286.481,335.138 283.649,336.040 280.349 C 336.942 277.048,337.604 274.271,337.511 274.178 C 337.418 274.085,336.576 276.813,335.640 280.240 M43.606 275.833 C 43.609 276.255,43.795 276.870,44.018 277.200 C 44.315 277.638,44.352 277.476,44.156 276.600 C 43.827 275.129,43.598 274.810,43.606 275.833 M55.625 277.096 C 55.546 278.667,61.886 299.446,64.901 307.498 C 67.124 313.434,66.436 310.720,63.756 302.977 C 62.313 298.810,59.899 291.170,58.391 286.000 C 56.883 280.830,55.638 276.823,55.625 277.096 M348.009 279.089 C 347.734 280.140,347.069 282.320,346.532 283.932 C 345.994 285.545,345.614 287.041,345.686 287.257 C 345.757 287.472,346.299 286.153,346.889 284.324 C 348.495 279.351,348.952 277.619,348.720 277.387 C 348.605 277.271,348.285 278.037,348.009 279.089 M333.449 287.815 C 333.312 288.173,333.215 288.766,333.234 289.133 C 333.253 289.500,333.427 289.269,333.621 288.620 C 333.998 287.358,333.865 286.733,333.449 287.815 M345.246 288.533 C 345.221 288.936,344.562 291.186,343.782 293.533 C 341.020 301.847,340.792 302.608,340.828 303.400 C 340.869 304.331,340.788 304.541,342.373 299.400 C 343.051 297.200,344.070 294.018,344.638 292.328 C 345.205 290.639,345.585 288.929,345.481 288.528 C 345.300 287.827,345.291 287.828,345.246 288.533 M47.798 290.965 C 47.893 291.826,48.162 292.722,48.396 292.956 C 48.697 293.257,48.708 293.032,48.434 292.191 C 48.221 291.536,47.952 290.640,47.836 290.200 C 47.720 289.760,47.703 290.104,47.798 290.965 M331.648 293.780 C 330.460 297.414,329.984 299.731,330.863 297.600 C 331.568 295.893,333.206 290.273,333.047 290.113 C 332.963 290.030,332.334 291.680,331.648 293.780 M49.628 297.876 C 49.613 298.358,49.780 298.864,50.000 299.000 C 50.473 299.292,50.473 298.901,50.000 297.800 C 49.669 297.029,49.655 297.031,49.628 297.876 M239.829 299.106 C 241.125 299.993,240.446 302.000,238.851 302.000 C 237.300 302.000,236.607 299.985,237.900 299.232 C 238.737 298.744,239.252 298.711,239.829 299.106 M329.210 301.474 C 328.731 302.974,328.003 305.100,327.594 306.200 C 325.065 312.998,323.586 317.319,323.737 317.470 C 323.832 317.565,324.182 316.869,324.515 315.922 C 324.847 314.975,325.867 312.130,326.780 309.600 C 328.945 303.607,330.404 299.071,330.225 298.892 C 330.146 298.813,329.690 299.975,329.210 301.474 M50.618 300.500 C 50.768 300.995,51.055 301.576,51.256 301.791 C 51.457 302.006,51.419 301.601,51.172 300.891 C 50.665 299.438,50.197 299.108,50.618 300.500 M52.030 304.800 C 52.028 305.350,52.290 306.149,52.613 306.576 C 53.337 307.534,53.337 307.413,52.612 305.400 C 52.154 304.129,52.034 304.006,52.030 304.800 M340.049 305.683 C 338.745 308.866,334.013 321.686,334.026 322.000 C 334.042 322.422,335.567 319.373,335.583 318.886 C 335.602 318.324,338.734 310.116,340.065 307.144 C 340.522 306.123,340.827 305.080,340.742 304.826 C 340.658 304.573,340.346 304.958,340.049 305.683 M66.414 311.486 C 66.393 312.218,69.733 321.005,69.869 320.574 C 69.933 320.368,69.186 318.130,68.208 315.600 C 67.229 313.070,66.422 311.219,66.414 311.486 M55.444 314.600 C 55.773 316.071,56.002 316.390,55.994 315.367 C 55.991 314.945,55.805 314.330,55.582 314.000 C 55.285 313.562,55.248 313.724,55.444 314.600 M123.600 318.400 C 122.694 319.306,122.626 319.728,123.209 320.817 C 124.355 322.958,127.200 322.389,127.200 320.019 C 127.200 317.797,125.133 316.867,123.600 318.400 M322.813 319.287 C 322.287 320.685,322.122 321.089,320.821 324.162 C 320.364 325.241,320.077 326.211,320.184 326.317 C 320.290 326.424,320.546 326.081,320.751 325.555 C 320.956 325.030,321.694 323.188,322.391 321.462 C 323.087 319.736,323.579 318.245,323.482 318.149 C 323.386 318.053,323.085 318.565,322.813 319.287 M58.006 321.033 C 58.009 321.455,58.195 322.070,58.418 322.400 C 58.715 322.838,58.752 322.676,58.556 321.800 C 58.227 320.329,57.998 320.010,58.006 321.033 M70.000 321.242 C 70.000 321.566,72.735 328.305,74.284 331.800 C 75.065 333.560,76.059 335.810,76.493 336.800 C 78.074 340.404,82.480 349.676,83.767 352.107 C 84.493 353.478,86.125 356.580,87.394 359.000 C 90.756 365.409,95.220 373.165,95.728 373.479 C 95.970 373.629,95.746 373.042,95.230 372.176 C 89.068 361.830,81.844 347.797,76.809 336.393 C 75.015 332.327,73.225 328.280,72.832 327.400 C 72.439 326.520,71.791 324.900,71.392 323.800 C 70.757 322.046,70.000 320.656,70.000 321.242 M58.945 324.123 C 59.255 325.360,60.368 328.000,60.579 328.000 C 60.672 328.000,60.383 326.920,59.937 325.600 C 59.148 323.265,58.480 322.269,58.945 324.123 M332.039 326.987 C 331.578 328.221,331.199 329.358,331.198 329.515 C 331.196 329.672,330.911 330.340,330.565 331.000 C 330.218 331.660,329.482 333.280,328.929 334.600 C 327.782 337.339,327.135 338.809,325.586 342.200 C 324.983 343.520,323.996 345.680,323.393 347.000 C 322.790 348.320,321.777 350.612,321.142 352.093 C 320.507 353.575,319.250 356.185,318.349 357.893 C 315.980 362.388,313.432 367.337,313.249 367.800 C 313.162 368.020,313.439 367.750,313.865 367.200 C 315.476 365.115,327.209 340.574,327.202 339.300 C 327.201 339.025,327.373 338.800,327.585 338.800 C 327.796 338.800,328.174 338.038,328.425 337.107 C 328.676 336.175,329.312 334.563,329.838 333.525 C 330.984 331.264,333.260 325.127,333.036 324.903 C 332.949 324.816,332.501 325.754,332.039 326.987 M317.624 331.922 C 316.427 334.715,314.130 339.774,312.521 343.164 C 310.911 346.554,309.661 349.394,309.741 349.475 C 310.133 349.866,320.159 327.846,319.908 327.145 C 319.848 326.980,318.821 329.130,317.624 331.922 M62.232 332.400 C 62.616 333.852,63.176 334.803,63.174 334.000 C 63.173 333.670,62.901 332.950,62.569 332.400 L 61.967 331.400 62.232 332.400 M64.420 337.800 C 64.416 338.020,65.127 339.640,66.000 341.400 C 66.873 343.160,67.594 344.780,67.602 345.000 C 67.611 345.220,67.975 345.850,68.412 346.400 C 69.094 347.260,69.069 347.092,68.235 345.200 C 66.789 341.925,64.427 337.343,64.420 337.800 M101.200 346.769 C 101.200 347.824,110.871 364.800,111.472 364.800 C 111.593 364.800,111.431 364.395,111.111 363.900 C 108.158 359.321,101.600 347.572,101.600 346.859 C 101.600 346.515,125.242 346.400,196.200 346.400 C 277.541 346.400,290.800 346.479,290.800 346.967 C 290.800 347.278,289.807 349.286,288.594 351.428 C 287.381 353.570,286.459 355.392,286.545 355.478 C 286.835 355.768,291.225 347.425,291.106 346.810 C 290.900 345.737,101.200 345.696,101.200 346.769 M307.994 352.500 C 302.325 363.514,297.655 371.713,291.932 380.700 C 290.216 383.395,288.905 385.600,289.018 385.600 C 289.596 385.600,300.084 368.349,304.095 360.800 C 308.884 351.786,309.766 350.000,309.428 350.000 C 309.347 350.000,308.702 351.125,307.994 352.500 M71.628 352.929 C 71.589 353.389,75.506 361.600,75.765 361.600 C 76.056 361.600,75.850 361.117,73.617 356.582 C 72.538 354.392,71.643 352.748,71.628 352.929 M281.326 363.900 C 278.355 368.721,278.310 368.800,278.540 368.800 C 278.643 368.800,279.799 367.045,281.108 364.900 C 283.974 360.205,284.090 360.000,283.888 360.000 C 283.801 360.000,282.648 361.755,281.326 363.900 M111.815 365.600 C 113.606 368.831,122.116 381.163,126.169 386.400 C 129.416 390.596,135.601 398.000,135.859 398.000 C 135.990 398.000,135.299 397.055,134.323 395.900 C 127.584 387.922,122.229 380.777,116.261 371.800 C 112.687 366.422,110.856 363.870,111.815 365.600 M78.800 367.188 C 78.800 367.759,81.538 372.400,81.875 372.400 C 81.994 372.400,81.792 371.943,81.426 371.384 C 81.060 370.824,80.319 369.538,79.780 368.524 C 79.241 367.510,78.800 366.909,78.800 367.188 M312.503 368.890 C 312.277 369.171,311.472 370.660,310.714 372.200 C 309.957 373.740,308.581 376.241,307.659 377.757 C 306.736 379.273,306.059 380.592,306.154 380.688 C 306.400 380.933,308.967 376.696,310.449 373.600 C 311.134 372.170,312.052 370.495,312.491 369.877 C 313.281 368.763,313.292 367.912,312.503 368.890 M274.800 374.000 C 272.868 376.845,272.932 377.230,274.883 374.500 C 276.589 372.113,276.900 371.600,276.639 371.600 C 276.524 371.600,275.696 372.680,274.800 374.000 M96.410 374.800 C 97.184 376.323,100.852 382.000,101.062 382.000 C 101.283 382.000,101.218 381.886,98.664 377.800 C 96.583 374.472,95.534 373.075,96.410 374.800 M270.375 380.300 C 267.228 384.675,263.157 389.983,260.943 392.600 C 260.012 393.700,258.030 396.040,256.538 397.800 C 245.600 410.706,229.244 425.624,216.352 434.455 C 214.398 435.793,212.800 436.968,212.800 437.067 C 212.800 437.339,213.416 436.937,218.223 433.530 C 236.466 420.599,254.244 402.788,269.258 382.400 C 272.892 377.466,273.345 376.800,273.070 376.800 C 272.973 376.800,271.760 378.375,270.375 380.300 M84.400 377.914 C 84.400 378.113,84.786 378.619,85.258 379.038 C 86.110 379.795,86.113 379.794,85.656 378.922 C 85.146 377.950,84.400 377.351,84.400 377.914 M304.482 382.881 C 303.825 383.836,302.996 385.244,302.640 386.009 C 302.050 387.279,300.626 389.474,299.607 390.683 C 299.383 390.949,299.200 391.336,299.200 391.543 C 299.200 391.750,298.480 392.878,297.600 394.049 C 296.720 395.220,296.000 396.298,296.000 396.445 C 296.000 396.591,294.505 398.846,292.677 401.456 C 289.315 406.257,288.344 407.750,289.070 407.000 C 289.678 406.372,292.157 403.113,292.600 402.358 C 293.698 400.487,297.775 394.625,298.440 393.960 C 298.858 393.542,299.200 392.967,299.200 392.681 C 299.200 392.396,300.100 390.792,301.200 389.116 C 302.300 387.441,303.200 385.941,303.200 385.783 C 303.200 385.625,303.842 384.601,304.627 383.509 C 305.413 382.416,305.970 381.437,305.866 381.333 C 305.762 381.229,305.139 381.925,304.482 382.881 M101.409 382.800 C 103.830 387.248,116.866 404.958,123.197 412.400 C 129.665 420.002,131.940 422.453,139.600 430.069 C 150.324 440.731,156.434 446.069,166.400 453.479 C 174.855 459.766,186.955 467.578,187.459 467.075 C 187.579 466.954,186.929 466.474,186.014 466.007 C 182.498 464.213,172.017 457.250,165.685 452.500 C 152.814 442.846,138.413 429.340,127.407 416.600 C 125.697 414.620,123.825 412.459,123.249 411.799 C 120.434 408.575,117.900 405.350,112.180 397.718 C 110.992 396.133,108.195 392.173,105.963 388.918 C 102.247 383.498,100.543 381.208,101.409 382.800 M285.414 390.500 C 281.212 396.510,273.730 406.465,271.334 409.234 C 270.270 410.462,267.511 413.702,265.203 416.434 C 249.668 434.816,226.238 454.631,206.895 465.745 C 196.050 471.977,197.033 471.752,191.860 469.186 C 189.627 468.079,188.160 467.461,188.600 467.814 C 189.554 468.579,195.766 471.600,196.386 471.600 C 198.718 471.600,215.348 461.452,225.800 453.650 C 248.734 436.533,273.590 410.019,288.191 387.100 C 289.904 384.412,288.283 386.396,285.414 390.500 M91.612 389.421 C 91.600 389.854,93.930 393.200,94.244 393.200 C 94.437 393.200,93.163 391.119,92.775 390.800 C 92.641 390.690,92.327 390.240,92.078 389.800 C 91.828 389.360,91.619 389.190,91.612 389.421 M95.600 396.119 C 95.600 396.478,96.005 396.984,96.500 397.244 L 97.400 397.716 96.604 396.758 C 96.167 396.231,95.762 395.725,95.704 395.633 C 95.647 395.542,95.600 395.760,95.600 396.119 M97.753 399.001 C 98.064 399.661,98.735 400.561,99.245 401.001 C 100.140 401.773,100.138 401.757,99.186 400.554 C 98.644 399.868,97.972 398.968,97.694 398.554 C 97.396 398.109,97.420 398.292,97.753 399.001 M138.739 401.500 C 140.292 403.205,142.547 405.678,143.751 406.996 C 144.955 408.314,146.023 409.304,146.125 409.196 C 146.226 409.088,144.169 406.753,141.554 404.007 C 138.939 401.260,136.800 398.875,136.800 398.707 C 136.800 398.538,136.601 398.400,136.358 398.400 C 136.114 398.400,137.186 399.795,138.739 401.500 M102.031 405.198 C 103.599 407.434,105.499 409.511,104.594 408.000 C 103.930 406.891,100.745 402.800,100.546 402.800 C 100.438 402.800,101.106 403.879,102.031 405.198 M288.179 407.906 C 287.948 408.068,287.138 409.098,286.379 410.195 C 285.621 411.292,284.777 412.428,284.504 412.719 C 283.851 413.417,279.560 419.026,278.831 420.134 C 278.518 420.610,279.021 420.190,279.949 419.200 C 280.878 418.210,282.108 416.680,282.684 415.800 C 283.259 414.920,284.236 413.570,284.855 412.800 C 286.336 410.958,288.821 407.598,288.697 407.606 C 288.644 407.609,288.411 407.744,288.179 407.906 M105.162 409.400 C 105.390 409.840,105.954 410.650,106.415 411.200 C 106.987 411.882,107.122 411.946,106.838 411.400 C 106.610 410.960,106.046 410.150,105.585 409.600 C 105.013 408.918,104.878 408.854,105.162 409.400 M149.000 412.367 C 150.540 413.886,151.874 415.055,151.964 414.967 C 152.165 414.769,146.881 409.599,146.484 409.603 C 146.328 409.605,147.460 410.849,149.000 412.367 M154.600 417.453 C 162.948 425.775,178.581 437.246,190.197 443.570 C 196.150 446.812,196.208 446.822,199.411 445.162 C 203.246 443.175,206.800 441.146,206.800 440.945 C 206.800 440.842,205.315 441.560,203.500 442.541 C 195.913 446.639,196.539 446.489,193.487 444.943 C 186.177 441.239,176.974 435.293,168.680 428.916 C 162.981 424.535,160.964 422.854,154.415 417.030 L 152.200 415.060 154.600 417.453 M277.080 422.283 C 276.520 422.897,274.390 425.380,272.348 427.800 C 270.306 430.220,267.728 433.186,266.618 434.390 C 262.445 438.920,258.960 442.633,257.791 443.797 C 256.364 445.216,243.010 457.534,242.056 458.310 C 241.476 458.782,241.493 458.798,242.200 458.447 C 243.271 457.917,249.195 452.580,250.801 450.700 C 251.506 449.875,252.289 449.198,252.541 449.194 C 253.003 449.189,263.436 438.762,265.950 435.794 C 266.692 434.917,268.142 433.300,269.171 432.200 C 270.200 431.100,271.663 429.403,272.421 428.430 C 273.876 426.562,275.981 424.111,277.524 422.487 C 278.033 421.953,278.370 421.437,278.274 421.341 C 278.178 421.245,277.641 421.669,277.080 422.283 M119.974 427.900 C 120.937 429.055,121.802 430.000,121.896 430.000 C 122.168 430.000,119.704 426.982,118.926 426.362 C 118.539 426.053,119.010 426.745,119.974 427.900 M127.200 436.247 C 127.200 436.456,128.235 437.611,129.500 438.814 L 131.800 441.000 129.600 438.609 C 128.390 437.294,127.355 436.139,127.300 436.043 C 127.245 435.946,127.200 436.038,127.200 436.247 M210.060 438.592 C 207.383 440.253,206.412 441.227,208.705 439.950 C 210.312 439.055,212.836 437.208,212.400 437.246 C 212.290 437.256,211.237 437.861,210.060 438.592 M133.744 443.109 C 134.060 443.621,136.400 445.353,136.400 445.075 C 136.400 444.976,135.739 444.391,134.932 443.775 C 134.124 443.159,133.589 442.859,133.744 443.109 M142.475 451.636 C 143.727 452.826,145.100 454.095,145.527 454.455 C 145.954 454.815,146.370 455.265,146.452 455.455 C 146.533 455.645,147.295 456.340,148.145 457.000 C 150.781 459.047,151.483 459.420,149.602 457.774 C 148.613 456.908,147.246 455.660,146.565 455.000 C 144.951 453.436,142.424 451.198,141.184 450.236 C 140.643 449.816,141.224 450.446,142.475 451.636 M152.200 459.966 C 152.978 460.861,155.200 462.598,155.200 462.312 C 155.200 462.234,154.345 461.467,153.300 460.608 C 152.255 459.749,151.760 459.460,152.200 459.966 M238.198 461.587 C 237.099 462.680,236.006 463.580,235.770 463.587 C 235.533 463.594,234.922 464.045,234.411 464.588 C 233.900 465.132,231.982 466.695,230.148 468.062 C 228.314 469.429,226.896 470.629,226.996 470.729 C 227.096 470.830,227.834 470.391,228.635 469.756 C 229.437 469.120,230.837 468.068,231.746 467.417 C 232.656 466.767,233.601 466.047,233.847 465.817 C 234.093 465.588,235.466 464.410,236.897 463.200 C 239.066 461.367,240.737 459.600,240.302 459.600 C 240.244 459.600,239.297 460.494,238.198 461.587 M156.813 463.900 C 156.819 464.065,157.314 464.546,157.913 464.968 L 159.000 465.736 158.030 464.668 C 157.011 463.546,156.792 463.407,156.813 463.900 M161.000 467.157 C 161.948 468.260,165.098 470.807,164.684 470.136 C 164.526 469.881,163.453 468.897,162.299 467.950 C 161.144 467.002,160.560 466.645,161.000 467.157 M224.881 471.772 C 223.023 473.085,222.762 473.461,224.331 472.562 C 225.063 472.143,225.850 471.575,226.080 471.300 C 226.671 470.593,226.393 470.702,224.881 471.772 M167.000 471.882 C 167.980 472.812,171.655 475.278,171.818 475.115 C 171.917 475.016,171.234 474.391,170.299 473.725 C 168.527 472.465,166.306 471.223,167.000 471.882 M219.253 475.848 C 218.323 476.644,217.634 477.367,217.722 477.455 C 217.810 477.543,218.674 476.892,219.641 476.008 C 221.830 474.006,221.543 473.888,219.253 475.848 M175.820 477.947 C 176.399 478.476,180.000 480.501,180.000 480.298 C 180.000 480.078,176.044 477.600,175.693 477.600 C 175.554 477.600,175.611 477.756,175.820 477.947 M214.294 478.896 C 211.604 480.627,212.218 480.727,215.051 479.019 C 216.343 478.239,217.130 477.617,216.800 477.636 C 216.470 477.654,215.342 478.221,214.294 478.896 M181.089 481.230 C 181.578 481.739,182.078 482.055,182.201 481.932 C 182.324 481.809,181.924 481.392,181.312 481.006 L 180.200 480.304 181.089 481.230 M208.794 482.300 C 208.790 482.465,207.874 483.049,206.758 483.597 C 204.313 484.797,203.888 485.282,205.792 484.698 C 207.269 484.245,210.148 482.044,209.300 482.016 C 209.025 482.007,208.797 482.135,208.794 482.300 M184.763 483.356 C 185.248 483.940,188.458 485.675,188.667 485.466 C 188.728 485.406,187.765 484.774,186.528 484.064 C 185.291 483.353,184.497 483.034,184.763 483.356 M201.900 486.229 C 200.405 487.040,200.496 487.378,202.000 486.600 C 202.660 486.259,203.200 485.894,203.200 485.790 C 203.200 485.532,203.157 485.547,201.900 486.229 M198.490 488.001 C 197.098 488.851,195.011 489.064,194.600 488.400 C 194.464 488.180,194.138 488.006,193.876 488.013 C 192.942 488.038,194.972 489.200,195.950 489.200 C 196.868 489.200,200.400 487.743,200.400 487.364 C 200.400 487.017,199.750 487.234,198.490 488.001 " stroke="none" fill="#178758" fill-rule="evenodd"></path></g></svg>